<svg width="580" height="400" xmlns="http://www.w3.org/2000/svg">
 <!-- Created with Method Draw - http://github.com/duopixel/Method-Draw/ -->

 <g>
  <title>background</title>
  <rect fill="#fff" id="canvas_background" height="402" width="582" y="-1" x="-1"/>
  <g display="none" overflow="visible" y="0" x="0" height="100%" width="100%" id="canvasGrid">
   <rect fill="url(#gridpattern)" stroke-width="0" y="0" x="0" height="100%" width="100%"/>
  </g>
 </g>
 <g>
  <title>Layer 1</title>
  <g stroke="null" id="svg_13">
   <g stroke="null" transform="matrix(6.019914609503065,0,0,6.008688726871244,-1109.8570775217377,-1026.8727445803233) " id="svg_4" fill-rule="evenodd" clip-rule="evenodd">
    <path stroke="null" id="svg_5" fill="#63412F" d="m270.437686,182.408614l0.1,-0.05c0.033,1.433 0.183,3.6 0.449,6.5c0.2,2.2 0.301,3.683 0.301,4.45c-0.301,0.367 -0.65,0.9 -1.051,1.6c-0.399,0.7 -0.6,1.167 -0.6,1.4c0,0.3 0.017,0.8 0.05,1.5c0,0.6 -0.083,0.917 -0.25,0.95l-0.35,0.25c-0.066,0.033 -0.117,0.033 -0.15,0c0.101,0.233 0.25,0.566 0.45,1c0.366,0.633 0.55,1.4 0.55,2.3l0.15,-0.25c0.033,-0.533 0.033,-1 0,-1.4c0.333,0.067 0.733,0.183 1.2,0.35c0,2.033 -0.034,3.333 -0.101,3.9c-0.733,0.133 -1.1,0.267 -1.1,0.4l-0.4,-0.35c-0.267,0.833 -0.666,1.567 -1.2,2.2c-0.166,0.233 -0.716,0.767 -1.649,1.6c-0.934,-0.867 -1.4,-1.6 -1.4,-2.2l0.95,-2.15c0.2,-0.133 0.3,-0.3 0.3,-0.5l0,-0.2l0.7,-1.6c0,-0.6 -0.083,-1.15 -0.25,-1.65l0,0.45c-0.066,0.633 -0.217,1.1 -0.45,1.4c-0.399,0.5 -1.1,0.75 -2.1,0.75c-0.334,0 -0.601,-0.033 -0.8,-0.1l-0.101,-0.15c0.634,1.934 0.684,3.1 0.15,3.5c-0.767,0.633 -1.167,1.2 -1.2,1.7l-0.6,0.65c-1.2,-0.467 -1.801,-1.8 -1.801,-4c0,-0.3 0.134,-0.867 0.4,-1.7c0.167,-0.833 0.25,-1.4 0.25,-1.7c-0.233,-0.333 -0.5,-0.75 -0.8,-1.25c-0.634,-0.967 -1.117,-1.95 -1.45,-2.95l0.15,1.6c0,0.6 -0.084,1.233 -0.25,1.9l-1.5,1.15l-0.847,-0.05c0.267,0.733 0.65,1.167 1.15,1.3c0.333,0.1 0.916,0.167 1.75,0.2c0,1.967 0.184,3.333 0.55,4.1c0.333,0.833 0.5,1.35 0.5,1.55c0,0.367 -0.1,0.667 -0.3,0.9c-0.134,0.167 -0.2,0.267 -0.2,0.3l-0.75,0c0.934,1.066 1.4,1.733 1.4,2c0,0.4 -0.051,0.7 -0.15,0.9c-0.233,0.167 -0.4,0.317 -0.5,0.45l-0.35,0.2c-0.367,0.233 -1.2,0.633 -2.5,1.2c-1.2,0.5 -1.851,0.75 -1.95,0.75c-0.633,-0.033 -1.15,-0.083 -1.55,-0.149c-0.2,-0.066 -0.383,-0.134 -0.55,-0.2l-0.25,-0.1c-0.3,-0.167 -0.45,-0.384 -0.45,-0.65l0.05,-0.85c0.8,-0.033 1.383,-0.2 1.75,-0.5c0.5,-0.367 0.75,-1.033 0.75,-2l-0.1,-1.3c0.066,-0.533 0.333,-1.483 0.8,-2.85c0.567,-1.467 1.017,-2.367 1.35,-2.7l-0.95,0.25c-0.466,0.434 -0.917,1.2 -1.35,2.3c-0.3,0.9 -0.45,1.566 -0.45,2c-0.567,0.8 -1.35,1.417 -2.35,1.85c-0.767,0.333 -1.467,0.5 -2.1,0.5c-0.466,0 -1.066,-0.133 -1.8,-0.4l0.2,0.2c0.466,3.4 -0.167,6.066 -1.9,8c-0.133,-6 -0.267,-10.65 -0.4,-13.95l-0.05,-3.6l0.75,-5.7l0,-0.6c0,-0.066 -0.017,-0.133 -0.05,-0.2c-0.066,-0.1 -0.1,-0.167 -0.1,-0.2c0.167,0.033 0.367,0.05 0.6,0.05c1.133,0.034 2.184,-0.333 3.15,-1.1c0.833,-0.667 1.367,-1.367 1.6,-2.1c0.3,0.433 0.317,0.933 0.05,1.5l1,-0.65l-1.1,0.75l-1.1,0.85c0.434,0.633 0.717,1.383 0.85,2.25c0.133,0.833 0.8,2.117 2,3.85c0.233,0.467 0.467,0.733 0.7,0.8c0.033,-0.267 0.05,-0.567 0.05,-0.9c0,-1.267 0.233,-2.783 0.7,-4.55c0.333,-1.467 0.55,-2.267 0.65,-2.4l-1.95,1.1c0,-0.9 0.217,-1.784 0.65,-2.65l-0.85,0.45c-0.133,-0.133 -0.317,-0.267 -0.55,-0.4c-0.333,-0.2 -0.8,-0.317 -1.4,-0.35c-0.2,-0.067 -0.567,-0.133 -1.1,-0.2c-0.433,-0.066 -1.1,-0.333 -2,-0.8l0.25,-0.1c2.767,0.133 5.083,0.383 6.95,0.75c0.2,0.1 0.667,0.383 1.4,0.85c0.634,0.433 1.033,0.7 1.2,0.8l0.2,-1.15l0.05,-1.1l0.1,-0.1c0.134,-0.434 0.233,-0.767 0.3,-1l0.325,-0.2l-0.55,0.325l-0.175,0.074l-0.15,0.1c-0.233,-0.433 -0.517,-0.7 -0.85,-0.8l-0.4,0c0,0.8 0.033,1.267 0.101,1.4l-0.151,0.1l-0.6,0.3c0.2,-0.533 0.267,-0.933 0.2,-1.2c-0.2,0 -0.4,-0.033 -0.6,-0.1c-0.2,-0.1 -0.317,-0.184 -0.35,-0.25c0.1,-0.1 0.267,-0.25 0.5,-0.45c0.567,-0.4 1.517,-0.933 2.85,-1.6s2.55,-1.15 3.65,-1.45c0.6,-0.167 1.149,-0.3 1.649,-0.4l-0.2,0.45c0.067,0.133 0.134,0.2 0.2,0.2c0.101,-0.067 0.184,-0.034 0.25,0.1c0.434,0.5 0.783,1.2 1.05,2.1c0.233,0.7 0.351,1.283 0.351,1.75c0,1.133 -0.233,1.934 -0.7,2.4c-0.467,0.5 -0.7,0.934 -0.7,1.3c0,0.033 0.334,0.433 1,1.2c0.733,0.9 1.233,1.733 1.5,2.5l0.05,-0.8c0.101,-0.533 -0.083,-1.033 -0.55,-1.5c-0.6,-0.6 -0.95,-1.033 -1.05,-1.3l0.55,-0.75c0.267,0.566 0.483,1.167 0.65,1.8c0.1,0.267 0.283,0.483 0.55,0.65c-0.033,-0.2 -0.184,-0.5 -0.45,-0.9s-0.4,-0.767 -0.4,-1.1c0,-0.367 0.083,-0.9 0.25,-1.6c0.267,-0.933 0.466,-1.683 0.6,-2.25l-0.55,1.3c-0.033,-0.5 0.017,-1.033 0.149,-1.6c0.134,-0.6 0.351,-0.967 0.65,-1.1c0.268,-0.167 0.501,-0.05 0.701,0.35c0.233,0.4 0.383,1.033 0.45,1.9l-0.05,1.25c0,0.6 0.017,1 0.051,1.2c0.1,-0.1 0.183,-0.233 0.25,-0.4c0,-1.333 -0.084,-2.083 -0.25,-2.25c0,-0.9 -0.2,-1.7 -0.601,-2.4c-0.434,-0.633 -0.65,-1.1 -0.65,-1.4c0,-0.367 0.083,-0.783 0.25,-1.25c0.133,-0.333 0.199,-0.517 0.199,-0.55c1.567,-0.667 2.45,-1.2 2.65,-1.6l0.301,-0.25zm-6.3,2.55l1.7,0l0.2,-0.1l0.05,-1.1l1.3,-0.05l-0.4,0.75l-0.15,0.1l-0.4,0.15l0.05,0l-0.2,0.05l-0.45,0.2l-1.5,0.65l0.649,-0.3l-0.849,-0.35zm0.35,13.15c-0.166,-0.2 -0.366,-0.317 -0.6,-0.35l-0.25,-0.05c-0.3,0.333 -0.566,0.767 -0.8,1.3l-0.3,0.6c0,0.4 0.05,0.683 0.149,0.85c0.033,0.067 0.15,0.2 0.351,0.4c0.033,-1.167 0.133,-1.867 0.3,-2.1c0.2,-0.167 0.583,-0.383 1.15,-0.65zm-4.8,-7.2l-1.4,1.05c0.666,3.934 1.116,6.2 1.35,6.8c0.2,0.5 0.6,0.917 1.2,1.25l0.1,-0.35c-0.066,-0.533 -0.35,-1.6 -0.85,-3.2c-0.367,-1.133 -0.5,-2.983 -0.4,-5.55zm1.95,11.2c-0.434,0.5 -0.65,1.15 -0.65,1.95l0.101,2.2l0,-0.25c0,-0.633 0.184,-1.283 0.55,-1.95c0.266,-0.533 0.266,-1.183 -0.001,-1.95zm7.05,-1.65l0.05,1.25c-0.1,0.567 -0.283,1.217 -0.55,1.95s-0.5,1.2 -0.7,1.4l0.2,0.05c0.967,-0.934 1.45,-1.583 1.45,-1.95c0,-0.4 -0.066,-0.767 -0.2,-1.1c-0.1,-0.467 -0.184,-1 -0.25,-1.6zm-18.25,4l-0.8,-0.65c-1.467,0.067 -2.2,1.25 -2.2,3.55c0,0.933 0.15,1.466 0.45,1.6l0.15,-0.1c0.2,-1.067 0.65,-2.1 1.35,-3.1c0.333,-0.533 0.683,-0.967 1.05,-1.3zm-4.2,19.8l-0.05,-2.6l0.05,0.85l0,1.75zm20.25,-18.4l-0.3,0.35c0.3,-0.033 0.601,-0.267 0.9,-0.7c-0.167,0 -0.367,0.117 -0.6,0.35zm-6.65,3.25c-2.233,0.9 -3.75,1.9 -4.55,3c-0.467,0.966 -0.85,1.583 -1.15,1.85c0.133,0 0.283,-0.083 0.45,-0.25c1.5,-1.667 3.25,-3.2 5.25,-4.6z"/>
    <path stroke="null" id="svg_6" fill="#7A4A3C" d="m194.137686,216.658614l0,0.25c-0.033,0.267 -0.067,0.533 -0.1,0.8c0,-0.333 0.033,-0.684 0.1,-1.05zm33.9,0.95c-1.3,0 -2.1,-0.134 -2.4,-0.4c0,0.533 0.15,1.134 0.45,1.8l-0.9,1.75l-0.25,0.15c-0.233,0.033 -0.883,0.033 -1.95,0c-1,-0.066 -1.717,-0.066 -2.15,0l0.45,0.25c-0.4,0 -0.733,-0.3 -1,-0.9c-0.066,-0.133 -0.117,-0.267 -0.15,-0.399c0.133,-0.467 0.317,-0.917 0.55,-1.351c0.4,-0.633 0.883,-0.949 1.45,-0.949c0.333,0 1.017,-0.15 2.05,-0.45l-0.05,-0.151c0.267,-0.899 0.483,-1.666 0.65,-2.3c0.033,0.3 0.15,0.55 0.35,0.75c0.267,0.267 0.567,0.4 0.9,0.4s0.617,-0.134 0.85,-0.4c0.3,-0.267 0.45,-0.6 0.45,-1c0,-0.367 -0.15,-0.683 -0.45,-0.95c-0.233,-0.267 -0.517,-0.4 -0.85,-0.4s-0.633,0.133 -0.9,0.4c0.3,-1.2 0.45,-2.15 0.45,-2.85c-0.967,0.5 -1.883,1.316 -2.75,2.45c-0.9,1.167 -1.45,1.8 -1.65,1.9c0.333,-0.666 0.383,-1.35 0.15,-2.05c-0.3,-0.633 -0.467,-1.033 -0.5,-1.2l-0.05,-0.05l-0.35,-0.8c0.034,1.533 -0.066,2.633 -0.3,3.3c-0.5,0.533 -0.95,0.866 -1.35,1c-0.2,0.066 -0.683,0.116 -1.45,0.15l-0.85,-0.25l-0.85,-0.1c-0.2,-0.133 -0.35,-0.399 -0.45,-0.8c-0.033,-0.367 -0.033,-0.7 0,-1l-0.75,0c-0.433,0.067 -1.417,0.45 -2.95,1.15c-1.467,0.666 -2.383,1 -2.75,1c-0.3,0 -0.733,-0.117 -1.3,-0.351c-0.533,-0.2 -0.867,-0.333 -1,-0.399c0.4,-1.734 0.6,-2.884 0.6,-3.45c-0.033,-1.1 -0.467,-1.883 -1.3,-2.35c0.1,0.167 0.183,0.517 0.25,1.05c0.066,0.467 0.066,0.85 0,1.15l-0.45,-1.65c-0.3,1.667 -0.533,2.633 -0.7,2.9c-0.3,0.667 -0.767,1.117 -1.4,1.35c-0.333,0.133 -0.7,0.217 -1.1,0.25l-0.4,0c-0.667,0 -1.183,-0.1 -1.55,-0.3c-0.5,-0.467 -1.033,-0.917 -1.6,-1.35l0,0.45c0.133,0.4 0.35,0.783 0.65,1.15l0.15,0.35l0,0.1c-0.9,0 -1.667,-0.133 -2.3,-0.4c-0.667,-0.267 -1,-0.6 -1,-1c-0.066,-0.733 -0.1,-1.4 -0.1,-2c0,-1.767 -0.066,-2.933 -0.2,-3.5l-0.15,0.4l-0.5,3.1l-0.5,-0.2c0.333,-0.8 0.383,-1.25 0.15,-1.35c-0.333,-0.2 -0.5,-0.733 -0.5,-1.6c0,-0.133 0.15,-0.317 0.45,-0.55c0.267,-0.233 0.6,-0.467 1,-0.7l-0.4,-1.25l-0.2,0.2c-0.3,0.4 -0.533,0.667 -0.7,0.8c0,-0.567 -0.05,-1.117 -0.15,-1.65c-0.167,-0.567 -0.25,-0.967 -0.25,-1.2c0,-0.3 0.083,-0.767 0.25,-1.4c0.2,-0.667 0.3,-1.167 0.3,-1.5l-0.2,0.05c-0.067,0.034 -0.25,0.3 -0.55,0.8l0,-1.55c0.067,-0.566 0.233,-1.483 0.5,-2.75c0.267,-1.233 0.483,-2.133 0.65,-2.7c0.3,0.533 0.567,1.066 0.8,1.6l-0.15,3.15c0,0.6 0.233,1 0.7,1.2l0.1,-0.25c-0.467,-2.466 -0.183,-4.55 0.85,-6.25c4.333,0.367 6.8,0.567 7.4,0.6c0.267,0.4 0.733,1.3 1.4,2.7c0.6,1.333 0.983,2.183 1.15,2.55c0,-1.7 0.034,-3.316 0.1,-4.85l-0.05,-0.025c0.792,0.147 1.525,0.264 2.2,0.35c-0.216,-0.036 -0.382,-0.078 -0.5,-0.125c1.567,0.067 4.083,-0.5 7.55,-1.7c3.533,-1.2 5.617,-2.233 6.25,-3.1c-0.5,-0.567 -0.917,-0.934 -1.25,-1.1c-0.6,-0.3 -1.317,-0.383 -2.15,-0.25l-0.6,0c-3.833,-0.7 -5.983,-1.05 -6.45,-1.05l-0.35,-0.25c0.667,-0.466 2.284,-1.033 4.85,-1.7c3,-0.8 5.617,-1.2 7.85,-1.2c0.067,0 0.683,-0.083 1.85,-0.25c1.167,0.033 1.8,0.517 1.9,1.45c-0.667,0.2 -1.283,0.417 -1.85,0.65l0.1,-0.3c1.333,-0.367 0.883,-0.567 -1.35,-0.6l-0.45,-0.05c-2.367,-0.033 -3.717,0.05 -4.05,0.25c-0.3,0.367 -0.816,0.717 -1.55,1.05l-0.25,0.25c0.3,0.167 0.75,0.333 1.35,0.5c0.7,0.233 1.216,0.35 1.55,0.35c0.767,0 1.55,-0.2 2.35,-0.6c0.1,-0.067 0.217,-0.117 0.35,-0.15l0.25,0c0.066,-0.034 0.15,-0.067 0.25,-0.1c-1,0.633 -1.467,1.583 -1.4,2.85l1.65,1.1c-0.967,0.934 -1.934,1.7 -2.9,2.3c-1.833,1.167 -3.566,1.4 -5.2,0.7c0,0.133 -0.1,0.383 -0.3,0.75c0.034,0.333 0.133,0.534 0.3,0.6c0.2,0.067 0.717,0.117 1.55,0.15c1.467,0.633 2.35,1.05 2.65,1.25c0.667,0.5 1,1.25 1,2.25c-0.333,0.167 -0.667,0.367 -1,0.6c-0.733,0.4 -1.117,1.2 -1.15,2.4l-0.1,3.95c0,0.6 0.267,1.15 0.8,1.65l0.05,-1.05c0,-0.033 0.2,-0.4 0.6,-1.1c0.133,-0.267 0.2,-0.567 0.2,-0.9c-0.067,-0.6 -0.1,-1.2 -0.1,-1.8c0.333,-0.5 0.717,-0.95 1.15,-1.35c0.5,-0.133 1.133,-0.25 1.9,-0.35c0,-0.7 0.3,-1.6 0.9,-2.7c0.633,-1.2 1.367,-2.05 2.2,-2.55l-2.4,-0.05l-0.8,-0.05l11.5,0.3c1.034,0.233 2.05,1.167 3.05,2.8c0.867,1.333 1.3,2.167 1.3,2.5c0,0.3 -0.133,0.8 -0.4,1.5c-0.233,0.733 -0.35,1.25 -0.35,1.55s0.567,0.667 1.7,1.1c0.467,0.567 1.017,1.167 1.65,1.8l-0.05,-0.3l-1.35,-2.45c0.033,-0.633 0.25,-1.267 0.65,-1.9c0.4,-0.6 0.6,-1.117 0.6,-1.55c0,-0.267 -0.133,-0.767 -0.4,-1.5s-0.383,-1.3 -0.35,-1.7l-0.45,0.55c0.033,-0.034 0.217,-0.367 0.55,-1c0.2,-0.367 0.216,-0.333 0.05,0.1c0.2,-0.367 0.317,-0.767 0.35,-1.2l1.35,0.25c0.933,-0.667 1.483,-1.083 1.65,-1.25c0.033,-0.033 0.117,-0.1 0.25,-0.2l0,0.6l-0.75,5.7l0.05,3.6l-0.25,-0.05c0.067,0.833 0.083,1.75 0.05,2.75c-0.034,1.1 -0.133,1.85 -0.3,2.25l-0.5,-0.15c-0.3,-0.367 -0.467,-0.85 -0.5,-1.45c0,0.4 -0.133,0.783 -0.4,1.15c-0.367,0.4 -0.567,0.633 -0.6,0.7c-0.967,0.233 -2.3,0.45 -4,0.65l-1.2,0c0.5,0.434 1.583,0.883 3.25,1.35l-0.05,0.55l0,0.05l-0.9,0.9c-0.433,0.3 -0.9,0.45 -1.4,0.45c-0.934,0 -1.967,-0.45 -3.1,-1.35c0.1,0.333 0.2,0.6 0.3,0.8c0.233,0.267 0.6,0.55 1.1,0.85c0.633,0.333 1.083,0.616 1.35,0.85l-1.75,1.2c-0.433,-0.033 -1.117,-0.05 -2.05,-0.05l-2.1,-0.15l0.05,-0.8c0.067,-0.366 0.533,-1.033 1.4,-2c0.867,-1 1.367,-1.767 1.5,-2.3l0.8,-1.4c-1.6,1 -2.55,1.583 -2.85,1.75s-0.817,0.25 -1.55,0.25c-0.7,0 -1.3,-0.217 -1.8,-0.65c-0.767,-0.733 -1.4,-1.217 -1.9,-1.45l-0.3,-0.05l0.05,0.3c0.233,1.067 0.55,1.9 0.95,2.5c0.233,0.367 0.35,0.95 0.35,1.75c0,1.233 -0.05,2 -0.15,2.3l-1,1.15zm-12.25,-35.75l0.35,-0.3l0.3,-0.25l0.05,0.05c0.8,0.2 1.917,0.35 3.35,0.45c0.8,0.067 1.917,0.117 3.35,0.15c0,0.067 0.25,0.284 0.75,0.65l-2.25,0.1l-3.65,0.05c-0.433,0 -0.883,-0.017 -1.35,-0.05c-0.7,-0.066 -1.066,-0.15 -1.1,-0.25l0,-0.05l0.2,-0.55zm24.35,-1.25c-0.4,0.2 -1.067,0.483 -2,0.85c-1,0.367 -1.6,0.55 -1.8,0.55c-0.534,0 -0.967,-0.033 -1.3,-0.1c-0.167,-0.1 -0.316,-0.267 -0.45,-0.5c0.4,-0.667 1.15,-1.083 2.25,-1.25c0.867,0.033 1.967,0.183 3.3,0.45zm15.3,1c-1.2,0.5 -2.083,1.066 -2.65,1.7l-10.85,0c0.667,-0.167 2.1,-0.233 4.3,-0.2c1.8,-0.2 2.617,-1.017 2.45,-2.45l0.25,0c0.667,0.033 1.383,0.117 2.15,0.25c-0.1,0.1 -0.2,0.217 -0.3,0.35c-0.133,0.233 -0.217,0.45 -0.25,0.65c0.1,0.267 0.167,0.433 0.2,0.5c0.1,0.167 0.333,0.25 0.7,0.25c0.267,0 0.567,-0.05 0.9,-0.15c0.633,-0.2 1.2,-0.533 1.7,-1l0.3,0.05c0.733,0 1.1,0.017 1.1,0.05zm8.7,3.35l-0.2,0c-0.5,0.1 -1.05,0.233 -1.649,0.4c-0.101,-0.2 -0.217,-0.4 -0.351,-0.6c0.601,0.133 1.316,-0.033 2.15,-0.5c0.7,-0.4 1.1,-0.733 1.2,-1s0.199,-0.6 0.3,-1c-1.167,0.566 -2.55,0.967 -4.15,1.2c-1.033,0.167 -1.916,0.25 -2.649,0.25c-0.767,0 -1.45,-0.25 -2.051,-0.75c0.267,-0.2 0.434,-0.316 0.5,-0.35c0.301,-0.133 1.267,-0.483 2.9,-1.05c4.233,0.1 7.667,0.367 10.3,0.8l0,0.05l-0.3,0.25c-0.134,0.133 -0.684,0.467 -1.65,1c-0.9,0.5 -1.4,0.767 -1.5,0.8l0.4,-0.75l-1.3,0.05l-0.05,1.1l-0.2,0.1l-1.7,0zm-3.95,-2.2c0.2,0.1 0.434,0.15 0.7,0.15s0.5,-0.05 0.7,-0.15c0.233,-0.1 0.35,-0.2 0.35,-0.3c0,-0.133 -0.116,-0.25 -0.35,-0.35c-0.2,-0.067 -0.434,-0.1 -0.7,-0.1s-0.5,0.033 -0.7,0.1c-0.233,0.1 -0.35,0.216 -0.35,0.35c0,0.1 0.116,0.2 0.35,0.3zm-2.8,3c-0.7,0.066 -1.217,0.017 -1.55,-0.15c0.8,-0.267 1.616,-0.4 2.45,-0.4l1,-0.05c-0.534,0.367 -1.167,0.567 -1.9,0.6zm-9.1,4.3c-0.433,0 -0.65,0.017 -0.65,0.05l0.35,0.05c-0.633,0.233 -1.667,0.517 -3.1,0.85c-1.6,0.367 -2.55,0.55 -2.85,0.55c-1.6,0 -3.25,-0.333 -4.95,-1c-2.4,-0.933 -4.067,-1.517 -5,-1.75l-0.45,-0.2c1.933,-0.267 4.05,-0.534 6.35,-0.8c4.267,-0.5 7.233,-0.75 8.9,-0.75c0.8,0 1.3,0.267 1.5,0.8c0.1,0.466 0.383,0.7 0.85,0.7c0.1,0 0.517,-0.267 1.25,-0.8c0.267,0 0.75,0.117 1.45,0.35c0.633,0.233 1.083,0.35 1.35,0.35c0.9,0 1.733,-0.017 2.5,-0.05c-0.233,0.2 -0.4,0.35 -0.5,0.45c0.033,0.067 0.15,0.15 0.35,0.25c0.2,0.066 0.4,0.1 0.6,0.1c0.066,0.267 0,0.667 -0.2,1.2l-0.8,0.4c-1.867,-0.367 -4.183,-0.617 -6.95,-0.75zm2.85,1.1l0.3,0.35c-0.233,0.733 -0.767,1.433 -1.6,2.1c-0.967,0.767 -2.017,1.133 -3.15,1.1c0.367,-0.367 0.967,-0.917 1.8,-1.65c0.1,0.267 0.15,0.1 0.15,-0.5c0,-0.433 -0.35,-0.733 -1.05,-0.9c-0.767,-0.133 -1.184,-0.25 -1.25,-0.35c0.1,-0.1 0.233,-0.25 0.4,-0.45c0.267,-0.2 0.7,-0.434 1.3,-0.7c0.9,0.467 1.567,0.733 2,0.8c0.533,0.067 0.9,0.133 1.1,0.2zm-6.7,-3.45c-0.267,0 -0.933,0.2 -2,0.6c-1.333,0.533 -2.133,0.833 -2.4,0.9c0.6,0.367 1.684,0.517 3.25,0.45c1.367,-0.033 2.383,-0.2 3.05,-0.5l0.1,-0.3c-0.767,-0.767 -1.433,-1.15 -2,-1.15zm1.4,5.45c0.2,-0.233 0.316,-0.4 0.35,-0.5s0.117,-0.3 0.25,-0.6c0.133,0.467 0.083,0.767 -0.15,0.9c-0.118,0.073 -0.268,0.139 -0.45,0.2zm0.3,-1.25c-0.1,0.033 -0.517,0.2 -1.25,0.5c-0.433,0.167 -0.65,0.35 -0.65,0.55l1.575,0.2c-0.462,0.133 -1.121,0.2 -1.975,0.2c-0.333,0 -0.65,-0.034 -0.95,-0.1l-0.4,-0.05c0.5,-0.667 1.183,-1.083 2.05,-1.25c0.833,-0.1 1.367,-0.117 1.6,-0.05zm-17.9,11.95c-0.033,0.066 -0.117,0.183 -0.25,0.35c-0.267,0.534 -0.483,1.4 -0.65,2.6c-0.233,-0.4 -0.7,-0.717 -1.4,-0.95c-0.4,-0.067 -0.783,-0.1 -1.15,-0.1c-0.066,0 -0.717,0.35 -1.95,1.05c-1.333,0.767 -2.483,1.45 -3.45,2.05l1,0.15c0.2,0 1.767,-0.184 4.7,-0.55c1.233,-0.167 1.95,-0.367 2.15,-0.6l0.1,0.75c0.133,-0.534 0.683,-1.434 1.65,-2.7c1.1,-1.467 1.933,-2.2 2.5,-2.2c0.3,0 0.867,0.15 1.7,0.45c0.733,0.267 1.1,0.383 1.1,0.35c-0.133,-0.3 -0.55,-0.6 -1.25,-0.9c-0.367,-0.167 -0.767,-0.3 -1.2,-0.4c1.7,0.167 2.867,0.833 3.5,2c0.466,0.9 0.683,2.05 0.65,3.45c0.1,-0.667 0.15,-1.3 0.15,-1.9c0,-1.567 -0.333,-2.883 -1,-3.95c-0.7,-0.7 -1.05,-1.083 -1.05,-1.15c0.033,-0.067 0.267,-0.383 0.7,-0.95c0.434,-0.6 0.583,-1.167 0.45,-1.7c-1.1,-0.233 -2.533,0.283 -4.3,1.55c-1.733,1.233 -2.733,2.4 -3,3.5l0.3,-0.2zm18,23.25l0,-0.5l0.05,0.7l-0.05,-0.2zm-20.2,-40.5c0.1,-0.034 0.2,-0.05 0.3,-0.05c-0.133,0.033 -0.25,0.083 -0.35,0.15c0.033,-0.033 0.05,-0.067 0.05,-0.1zm-2.6,4.7c-0.933,0.1 -1.65,0.35 -2.15,0.75c-0.433,0.467 -0.717,0.75 -0.85,0.85l0.05,0.2c0.1,0.1 0.316,0.15 0.65,0.15c0.7,0 1.183,-0.15 1.45,-0.45c0.133,-0.1 0.333,-0.517 0.6,-1.25l0.25,-0.25zm-7.9,3.85c0.3,-0.033 0.5,-0.1 0.6,-0.2c0.067,-0.1 0.167,-0.25 0.3,-0.45c-1.1,0 -1.65,0.1 -1.65,0.3l0.1,0.15c0.133,0.1 0.35,0.167 0.65,0.2zm2.15,6.65l-0.1,-2.25c-1.034,5.1 -2.25,7.817 -3.65,8.15c-0.367,0.1 -1,0.034 -1.9,-0.2s-1.633,-0.267 -2.2,-0.1l1.05,0.05c1.067,0.2 1.767,0.417 2.1,0.65c0.267,0.133 0.867,0.733 1.8,1.8c0.133,-1.4 0.667,-2.667 1.6,-3.8c0.867,-1.067 1.3,-2.5 1.3,-4.3zm-2.5,-1.45l-0.65,-0.3c-1.267,-0.167 -2.333,0.317 -3.2,1.45c-0.633,0.8 -0.95,1.4 -0.95,1.8c0,0.5 0.133,1.017 0.4,1.55c0.233,-2.167 0.867,-3.367 1.9,-3.6c1.467,-0.333 2.3,-0.633 2.5,-0.9zm15.15,-1.55c0.033,0 0.233,0.133 0.6,0.4c0.534,0.2 1.133,0.083 1.8,-0.35l-0.65,-0.05l-1.8,-0.45l0.05,0.45zm-24.35,-7.05c-1.067,-0.2 -1.883,-0.3 -2.45,-0.3c-0.633,0 -1.167,0.25 -1.6,0.75l-0.15,0.5c0.233,0.067 0.667,0.1 1.3,0.1c0.633,-0.033 1.2,-0.133 1.7,-0.3l1.2,-0.75zm-0.45,2.6c-0.4,0.3 -0.566,0.283 -0.5,-0.05c-4.1,-1 -5.6,-1.816 -4.5,-2.45c1.133,-0.633 1.817,-0.95 2.05,-0.95c0.3,0 1.15,0.1 2.55,0.3c1.667,0.2 3.4,0.3 5.2,0.3c-1.467,0.133 -2.517,0.433 -3.15,0.9c-0.433,0.6 -0.767,1.033 -1,1.3l-0.65,0.65zm-5.25,4.3l-0.2,-0.3c-0.833,0.167 -1.5,0.683 -2,1.55l0.85,-0.35c0.833,-0.333 1.283,-0.633 1.35,-0.9zm1.5,-0.05c0,-0.1 -0.033,-0.184 -0.1,-0.25c-0.167,-0.1 -0.333,-0.15 -0.5,-0.15c-0.2,0 -0.35,0.05 -0.45,0.15c-0.133,0.066 -0.2,0.15 -0.2,0.25c0,0.066 0.067,0.15 0.2,0.25c0.1,0.066 0.25,0.1 0.45,0.1c0.167,0 0.333,-0.033 0.5,-0.1c0.067,-0.1 0.1,-0.183 0.1,-0.25zm-3.95,4.5c-0.233,0.1 -0.35,0.267 -0.35,0.5c0,0.2 0.117,0.367 0.35,0.5s0.533,0.2 0.9,0.2c0.333,0 0.633,-0.066 0.9,-0.2c0.233,-0.133 0.35,-0.3 0.35,-0.5c0,-0.233 -0.117,-0.4 -0.35,-0.5c-0.267,-0.167 -0.567,-0.25 -0.9,-0.25c-0.367,0 -0.667,0.083 -0.9,0.25zm3.2,0.45c0.733,0.467 1.133,0.883 1.2,1.25c-0.033,0.033 -0.233,0.133 -0.6,0.3c-0.333,0.167 -0.617,0.716 -0.85,1.65c0.3,0.033 1.067,0.217 2.3,0.55c1.267,0.333 2.033,0.567 2.3,0.7c-0.4,-0.833 -0.433,-1.5 -0.1,-2c0.067,-0.167 0.517,-0.517 1.35,-1.05c1.533,-1 1.983,-2.7 1.35,-5.1l-0.25,0.45c-0.267,0.2 -0.9,0.567 -1.9,1.1c-0.934,0.533 -1.417,0.8 -1.45,0.8c-0.667,0 -1.267,-0.05 -1.8,-0.15c-0.3,-0.066 -1.633,-0.033 -4,0.1c0.267,0.2 0.483,0.35 0.65,0.45c0.567,0.167 1.167,0.483 1.8,0.95zm4.95,-4.9c-0.167,-0.2 -0.4,-0.3 -0.7,-0.3s-0.517,0.1 -0.65,0.3c-0.167,0.133 -0.25,0.3 -0.25,0.5c0,0.233 0.083,0.433 0.25,0.6c0.133,0.167 0.35,0.25 0.65,0.25s0.533,-0.083 0.7,-0.25c0.133,-0.167 0.2,-0.367 0.2,-0.6c0,-0.2 -0.067,-0.367 -0.2,-0.5zm7.2,0.7c-0.167,0.033 -0.35,0.1 -0.55,0.2c-0.133,0.133 -0.233,0.267 -0.3,0.4c0.767,0.067 1.45,-0.066 2.05,-0.4l-1.2,-0.2zm-8.35,9.65l0.05,-0.35l-1.75,-0.55c-0.5,-0.533 -1.233,-0.717 -2.2,-0.55c-1.133,0.167 -1.9,0.767 -2.3,1.8c0.533,-0.333 1.017,-0.667 1.45,-1c0.433,-0.167 1.45,-0.25 3.05,-0.25c0.833,0.6 1.4,0.9 1.7,0.9zm5.3,-0.35c-0.533,0 -0.967,0.117 -1.3,0.35c-0.367,0.167 -0.55,0.4 -0.55,0.7s0.184,0.55 0.55,0.75c0.333,0.2 0.767,0.3 1.3,0.3c0.5,0 0.95,-0.1 1.35,-0.3c0.367,-0.2 0.55,-0.45 0.55,-0.75s-0.183,-0.533 -0.55,-0.7c-0.4,-0.233 -0.85,-0.35 -1.35,-0.35zm-4.05,8.25c0.2,-0.2 0.466,-0.3 0.8,-0.3s0.6,0.1 0.8,0.3c0.2,0.167 0.3,0.384 0.3,0.65c0,0.3 -0.1,0.55 -0.3,0.75c-0.2,0.166 -0.466,0.25 -0.8,0.25s-0.6,-0.084 -0.8,-0.25c-0.233,-0.2 -0.35,-0.45 -0.35,-0.75c0,-0.266 0.117,-0.483 0.35,-0.65zm4.85,-4.75c-0.167,0 -0.3,0.05 -0.4,0.15s-0.15,0.2 -0.15,0.3c0,0.133 0.05,0.25 0.15,0.35c0.1,0.067 0.233,0.1 0.4,0.1s0.3,-0.033 0.4,-0.1c0.133,-0.1 0.2,-0.216 0.2,-0.35c0,-0.1 -0.066,-0.2 -0.2,-0.3c-0.1,-0.1 -0.233,-0.15 -0.4,-0.15zm16.1,-0.8c-0.1,-0.067 -0.2,-0.1 -0.3,-0.1c-0.167,0 -0.267,0.033 -0.3,0.1c-0.1,0.066 -0.15,0.15 -0.15,0.25c0,0.066 0.05,0.15 0.15,0.25c0.034,0.066 0.133,0.1 0.3,0.1c0.1,0 0.2,-0.033 0.3,-0.1c0.1,-0.1 0.15,-0.184 0.15,-0.25c0,-0.1 -0.05,-0.183 -0.15,-0.25zm-9.2,1.55c0.233,-0.2 0.35,-0.45 0.35,-0.75s-0.117,-0.567 -0.35,-0.8c-0.267,-0.2 -0.567,-0.3 -0.9,-0.3c-0.367,0 -0.667,0.1 -0.9,0.3c-0.267,0.233 -0.4,0.5 -0.4,0.8s0.133,0.55 0.4,0.75c0.233,0.2 0.533,0.3 0.9,0.3c0.333,0 0.633,-0.1 0.9,-0.3zm5.95,-3.45c-0.2,-0.1 -0.433,-0.15 -0.7,-0.15s-0.483,0.05 -0.65,0.15c-0.2,0.067 -0.3,0.167 -0.3,0.3c0,0.1 0.1,0.2 0.3,0.3c0.167,0.1 0.383,0.15 0.65,0.15s0.5,-0.05 0.7,-0.15c0.167,-0.1 0.25,-0.2 0.25,-0.3c0,-0.133 -0.083,-0.233 -0.25,-0.3z"/>
    <path stroke="null" id="svg_7" fill="#8F5847" d="m194.837686,210.608614l-0.65,0.1c0,-3.466 -0.05,-6.6 -0.15,-9.4l0,-0.05c0.3,-0.5 0.483,-0.767 0.55,-0.8l0.2,-0.05c0,0.333 -0.1,0.833 -0.3,1.5c-0.167,0.633 -0.25,1.1 -0.25,1.4c0,0.233 0.083,0.633 0.25,1.2c0.1,0.533 0.15,1.083 0.15,1.65c0.167,-0.133 0.4,-0.4 0.7,-0.8l0.2,-0.2l0.4,1.25c-0.4,0.233 -0.733,0.467 -1,0.7c-0.3,0.233 -0.45,0.417 -0.45,0.55c0,0.867 0.167,1.4 0.5,1.6c0.233,0.1 0.183,0.55 -0.15,1.35zm17.7,-18.25l-3.7,0l0,1.4l3.7,0l0,-1.4zm-0.35,-4.9c-0.566,-0.1 -1.167,-0.066 -1.8,0.1c-0.2,0.033 -0.583,0.217 -1.15,0.55c0.1,0.2 0.167,0.3 0.2,0.3c0.1,0.133 0.333,0.2 0.7,0.2c0.767,0 1.567,-0.3 2.4,-0.9c0.467,0 2.617,0.35 6.45,1.05c-1.8,-0.133 -3.567,0.066 -5.3,0.6c-1.566,0.8 -2.85,1.45 -3.85,1.95c3.1,0.533 4.767,0.8 5,0.8c2.167,0 3.517,-0.067 4.05,-0.2c1.567,-0.3 2.683,-1.083 3.35,-2.35l-2.65,-0.8c0.833,-0.133 1.55,-0.05 2.15,0.25c0.333,0.167 0.75,0.533 1.25,1.1c-0.633,0.867 -2.717,1.9 -6.25,3.1c-3.467,1.2 -5.983,1.767 -7.55,1.7c0.118,0.047 0.284,0.089 0.5,0.125c-0.674,-0.086 -1.408,-0.203 -2.2,-0.35l-0.05,-0.025l-1.25,-0.25l-0.65,-0.05l0.65,-0.65c0.233,-0.267 0.567,-0.7 1,-1.3c0.633,-0.467 1.684,-0.767 3.15,-0.9c-1.8,0 -3.534,-0.1 -5.2,-0.3c-1.4,-0.2 -2.25,-0.3 -2.55,-0.3c-0.233,0 -0.917,0.317 -2.05,0.95c-1.1,0.633 0.4,1.45 4.5,2.45l-0.15,0c-0.6,-0.033 -3.067,-0.233 -7.4,-0.6l-1.5,-0.1l-0.05,0l-0.75,0.65c-0.167,0.566 -0.383,1.467 -0.65,2.7c-0.267,1.267 -0.433,2.184 -0.5,2.75l0,0.8c-0.1,-2.6 -0.233,-4.934 -0.4,-7l1.25,-0.25c-0.933,0.066 -0.95,-0.2 -0.05,-0.8c0.433,-0.333 1.1,-0.8 2,-1.4c0.133,0.333 0.267,0.617 0.4,0.85c2.967,-2.4 6.25,-4.333 9.85,-5.8c2.7,-1.1 4.617,-1.65 5.75,-1.65c3.367,0 6.833,-0.117 10.4,-0.35l-1.55,-1.4l2.25,-0.1c-0.5,-0.367 -0.75,-0.583 -0.75,-0.65c-1.433,-0.033 -2.55,-0.083 -3.35,-0.15c-1.434,-0.1 -2.55,-0.25 -3.35,-0.45l0.15,-0.25l0.75,-0.55l-0.05,0.1l-0.7,0.45c1.1,0 3.9,0.033 8.4,0.1c4.3,-0.033 7.3,-0.333 9,-0.9l-6.25,-0.05l9.05,-0.1c-1.1,0.167 -1.85,0.583 -2.25,1.25c0.133,0.233 0.283,0.4 0.45,0.5c0.333,0.067 0.767,0.1 1.3,0.1c0.2,0 0.8,-0.184 1.8,-0.55c0.933,-0.367 1.6,-0.65 2,-0.85l0.8,0c-0.1,0.066 -0.2,0.233 -0.3,0.5l0.1,0.3c0.6,0 0.9,0.05 0.9,0.15c-0.533,0.5 -1.617,1.017 -3.25,1.55c-1.667,0.533 -3.05,0.8 -4.15,0.8l0.1,0.35c0.033,0 0.017,0.083 -0.05,0.25c-0.033,0.066 0.117,0.1 0.45,0.1c0.533,0 0.816,0.267 0.85,0.8c-1.567,0.033 -2.8,0.233 -3.7,0.6c-0.333,0.133 -0.767,0.417 -1.3,0.85c1.4,0.267 2.6,0.4 3.6,0.4l3.95,0c2.267,-0.133 3.883,-0.533 4.85,-1.2c-0.533,-0.733 -1,-1.25 -1.4,-1.55c-0.333,-0.233 -0.9,-0.55 -1.7,-0.95c2.933,-0.933 4.6,-1.467 5,-1.6c0.3,-0.133 1.117,-0.583 2.45,-1.35l1.35,0.05c0.167,1.433 -0.65,2.25 -2.45,2.45c-2.2,-0.034 -3.633,0.033 -4.3,0.2l10.85,0c0.567,-0.633 1.45,-1.2 2.65,-1.7c1.967,0 3.533,-0.017 4.7,-0.05c-1.634,0.567 -2.6,0.917 -2.9,1.05c-0.066,0.033 -0.233,0.15 -0.5,0.35c0.601,0.5 1.284,0.75 2.051,0.75c0.733,0 1.616,-0.083 2.649,-0.25c1.601,-0.233 2.983,-0.633 4.15,-1.2c-0.101,0.4 -0.2,0.733 -0.3,1c-0.101,0.267 -0.5,0.6 -1.2,1c-0.834,0.467 -1.55,0.633 -2.15,0.5c0.134,0.2 0.25,0.4 0.351,0.6c-1.101,0.3 -2.318,0.783 -3.651,1.45s-2.283,1.2 -2.85,1.6c-0.767,0.033 -1.6,0.05 -2.5,0.05c-0.267,0 -0.717,-0.117 -1.35,-0.35c-0.7,-0.233 -1.183,-0.35 -1.45,-0.35c-0.733,0.533 -1.15,0.8 -1.25,0.8c-0.467,0 -0.75,-0.233 -0.85,-0.7c-0.2,-0.534 -0.7,-0.8 -1.5,-0.8c-1.667,0 -4.633,0.25 -8.9,0.75c-2.3,0.267 -4.417,0.533 -6.35,0.8l0.45,0.2c0.933,0.233 2.6,0.817 5,1.75c1.7,0.667 3.35,1 4.95,1c0.3,0 1.25,-0.183 2.85,-0.55c1.433,-0.333 2.467,-0.617 3.1,-0.85l-0.35,-0.05c0,-0.034 0.217,-0.05 0.65,-0.05l-0.25,0.1c-0.6,0.267 -1.033,0.5 -1.3,0.7c-0.167,0.2 -0.3,0.35 -0.4,0.45c0.066,0.1 0.483,0.217 1.25,0.35c0.7,0.167 1.05,0.467 1.05,0.9c0,0.6 -0.05,0.767 -0.15,0.5c-0.833,0.733 -1.434,1.283 -1.8,1.65c-0.233,0 -0.433,-0.017 -0.6,-0.05c0,0.033 0.033,0.1 0.1,0.2c0.034,0.066 0.05,0.133 0.05,0.2c-0.133,0.1 -0.217,0.167 -0.25,0.2c-0.167,0.167 -0.717,0.583 -1.65,1.25l-1.35,-0.25l-0.05,-0.05l-1.95,-0.25l-0.15,0c-0.934,-0.033 -1.767,-0.033 -2.5,0l-1.9,0l-11.5,-0.3l-2.55,-0.1l-3.35,-0.1c-0.833,-0.033 -1.35,-0.083 -1.55,-0.15c-0.167,-0.066 -0.267,-0.267 -0.3,-0.6c0.2,-0.367 0.3,-0.617 0.3,-0.75c1.633,0.7 3.367,0.467 5.2,-0.7c0.967,-0.6 1.934,-1.367 2.9,-2.3l-1.65,-1.1c-0.066,-1.267 0.4,-2.217 1.4,-2.85c0.2,-0.067 0.4,-0.15 0.6,-0.25c0.034,0 0.05,-0.017 0.05,-0.05c0.1,-0.066 0.217,-0.117 0.35,-0.15c0.1,-0.033 0.233,-0.05 0.4,-0.05l0.05,-0.1c0.567,-0.233 1.183,-0.45 1.85,-0.65c-0.1,-0.934 -0.733,-1.417 -1.9,-1.45c-1.167,0.167 -1.783,0.25 -1.85,0.25c-2.233,0 -4.85,0.4 -7.85,1.2c-2.567,0.667 -4.183,1.233 -4.85,1.7zm3.95,-5.9l-0.35,0.3l-0.4,0.25l0.75,-0.55zm37.9,-0.05l-0.15,-0.05l0.45,0.1l-0.3,-0.05zm16.1,1.15c-0.2,0.4 -1.083,0.933 -2.65,1.6l-0.65,0.3l0.149,-0.1c0.101,-0.033 0.601,-0.3 1.5,-0.8c0.967,-0.533 1.517,-0.867 1.651,-1zm-12.75,3.1c0.733,-0.033 1.366,-0.233 1.9,-0.6l-1,0.05c-0.834,0 -1.65,0.133 -2.45,0.4c0.333,0.167 0.85,0.217 1.55,0.15zm1.1,3.35l-0.225,0.125l0.55,-0.325l-0.325,0.2zm-12.35,2.8c-0.233,-0.067 -0.767,-0.05 -1.6,0.05c-0.867,0.167 -1.55,0.583 -2.05,1.25l0.4,0.05c0.3,0.066 0.617,0.1 0.95,0.1c0.854,0 1.512,-0.067 1.975,-0.2l0.025,0c0.182,-0.061 0.332,-0.127 0.45,-0.2c0.233,-0.133 0.283,-0.433 0.15,-0.9l-0.3,-0.15zm5.75,-5l0.1,0.3c0.167,0.267 0.566,0.4 1.2,0.4c0.367,0 0.667,-0.1 0.9,-0.3c0.033,-0.066 0.35,-0.483 0.95,-1.25l-0.9,0.05c-1.3,0.233 -2.05,0.5 -2.25,0.8zm-15.65,5.05l0.35,0.2c0.267,0.133 0.517,0.2 0.75,0.2c0.3,0.033 0.466,-0.034 0.5,-0.2l-1.6,-0.2zm-8,11.9l0.1,-0.1l0.85,-0.45c1,-0.1 1.883,-0.133 2.65,-0.1c0.433,0.1 0.833,0.233 1.2,0.4c0.7,0.3 1.117,0.6 1.25,0.9c0,0.033 -0.367,-0.083 -1.1,-0.35c-0.833,-0.3 -1.4,-0.45 -1.7,-0.45c-0.567,0 -1.4,0.733 -2.5,2.2c-0.967,1.267 -1.517,2.167 -1.65,2.7l-0.1,-0.75c-0.2,0.233 -0.917,0.433 -2.15,0.6c-2.934,0.367 -4.5,0.55 -4.7,0.55l-1,-0.15c0.967,-0.6 2.117,-1.284 3.45,-2.05c1.233,-0.7 1.883,-1.05 1.95,-1.05c0.367,0 0.75,0.033 1.15,0.1c0.7,0.233 1.167,0.55 1.4,0.95c0.167,-1.2 0.383,-2.066 0.65,-2.6c0.133,-0.167 0.217,-0.283 0.25,-0.35zm-0.45,-21.65c0,-0.167 -0.15,-0.316 -0.45,-0.45c-0.233,-0.133 -0.534,-0.2 -0.9,-0.2c-0.3,0 -0.583,0.067 -0.85,0.2s-0.4,0.283 -0.4,0.45s0.133,0.317 0.4,0.45s0.55,0.2 0.85,0.2c0.367,0 0.667,-0.067 0.9,-0.2c0.3,-0.133 0.45,-0.283 0.45,-0.45zm3.7,10.2c0.933,0 1.733,-0.133 2.4,-0.4s1,-0.583 1,-0.95c0,-0.333 -0.333,-0.65 -1,-0.95c-0.667,-0.267 -1.467,-0.4 -2.4,-0.4c-0.934,0 -1.717,0.133 -2.35,0.4c-0.667,0.3 -1,0.617 -1,0.95c0,0.367 0.333,0.684 1,0.95c0.633,0.267 1.417,0.4 2.35,0.4zm-9.8,-9.7c-3.2,0.133 -5.433,0.333 -6.7,0.6c0.367,-0.133 0.566,-0.417 0.6,-0.85c0.033,0.1 0.4,0.184 1.1,0.25c0.467,0.034 0.917,0.05 1.35,0.05l3.65,-0.05zm-6.5,17.65c-0.2,0.267 -1.033,0.566 -2.5,0.9c-1.033,0.233 -1.667,1.433 -1.9,3.6c-0.267,-0.534 -0.4,-1.05 -0.4,-1.55c0,-0.4 0.317,-1 0.95,-1.8c0.867,-1.133 1.933,-1.617 3.2,-1.45l0.65,0.3zm-8.55,-10.5l0.8,-0.05l-0.85,-0.6l0,0.3l0.05,0.35zm-4.85,8.75c0,0.066 -0.033,0.15 -0.1,0.25c-0.167,0.066 -0.333,0.1 -0.5,0.1c-0.2,0 -0.35,-0.033 -0.45,-0.1c-0.133,-0.1 -0.2,-0.184 -0.2,-0.25c0,-0.1 0.067,-0.184 0.2,-0.25c0.1,-0.1 0.25,-0.15 0.45,-0.15c0.167,0 0.333,0.05 0.5,0.15c0.067,0.067 0.1,0.15 0.1,0.25zm-1.5,0.05c-0.066,0.267 -0.517,0.567 -1.35,0.9l-0.85,0.35c0.5,-0.867 1.167,-1.383 2,-1.55l0.2,0.3zm23.85,18.3l0.05,0.15c-1.033,0.3 -1.716,0.45 -2.05,0.45c-0.567,0 -1.05,0.316 -1.45,0.949c-0.233,0.434 -0.417,0.884 -0.55,1.351l0,0.1c-0.3,-0.399 -0.383,-1.05 -0.25,-1.95c0.933,-1.033 1.8,-1.55 2.6,-1.55c0.533,0 1.083,0.15 1.65,0.45l0,0.05zm0.65,-2.3c-0.033,-0.1 -0.05,-0.184 -0.05,-0.25c0,-0.367 0.133,-0.683 0.4,-0.95s0.567,-0.4 0.9,-0.4s0.617,0.133 0.85,0.4c0.3,0.267 0.45,0.583 0.45,0.95c0,0.4 -0.15,0.733 -0.45,1c-0.233,0.267 -0.517,0.4 -0.85,0.4s-0.633,-0.134 -0.9,-0.4c-0.2,-0.2 -0.317,-0.45 -0.35,-0.75zm-26.95,-11.55c0.233,-0.167 0.533,-0.25 0.9,-0.25c0.333,0 0.633,0.083 0.9,0.25c0.233,0.1 0.35,0.267 0.35,0.5c0,0.2 -0.117,0.367 -0.35,0.5c-0.267,0.133 -0.567,0.2 -0.9,0.2c-0.367,0 -0.667,-0.066 -0.9,-0.2c-0.233,-0.133 -0.35,-0.3 -0.35,-0.5c0,-0.233 0.117,-0.4 0.35,-0.5zm8.15,-4.45c0.133,0.133 0.2,0.3 0.2,0.5c0,0.233 -0.066,0.433 -0.2,0.6c-0.167,0.167 -0.4,0.25 -0.7,0.25s-0.517,-0.083 -0.65,-0.25c-0.167,-0.167 -0.25,-0.367 -0.25,-0.6c0,-0.2 0.083,-0.367 0.25,-0.5c0.133,-0.2 0.35,-0.3 0.65,-0.3s0.533,0.1 0.7,0.3zm4.15,10c0.5,0 0.95,0.117 1.35,0.35c0.367,0.167 0.55,0.4 0.55,0.7s-0.183,0.55 -0.55,0.75c-0.4,0.2 -0.85,0.3 -1.35,0.3c-0.533,0 -0.967,-0.1 -1.3,-0.3c-0.367,-0.2 -0.55,-0.45 -0.55,-0.75s0.184,-0.533 0.55,-0.7c0.333,-0.233 0.767,-0.35 1.3,-0.35zm-5.3,0.35c-0.3,0 -0.867,-0.3 -1.7,-0.9c-1.6,0 -2.617,0.083 -3.05,0.25c-0.434,0.333 -0.917,0.667 -1.45,1c0.4,-1.034 1.167,-1.633 2.3,-1.8c0.967,-0.167 1.7,0.017 2.2,0.55l1.75,0.55l-0.05,0.35zm6.1,3.15c0.167,0 0.3,0.05 0.4,0.15c0.133,0.1 0.2,0.2 0.2,0.3c0,0.133 -0.066,0.25 -0.2,0.35c-0.1,0.067 -0.233,0.1 -0.4,0.1s-0.3,-0.033 -0.4,-0.1c-0.1,-0.1 -0.15,-0.216 -0.15,-0.35c0,-0.1 0.05,-0.2 0.15,-0.3s0.233,-0.15 0.4,-0.15zm16.1,-0.8c0.1,0.066 0.15,0.15 0.15,0.25c0,0.066 -0.05,0.15 -0.15,0.25c-0.1,0.066 -0.2,0.1 -0.3,0.1c-0.167,0 -0.267,-0.033 -0.3,-0.1c-0.1,-0.1 -0.15,-0.184 -0.15,-0.25c0,-0.1 0.05,-0.184 0.15,-0.25c0.034,-0.067 0.133,-0.1 0.3,-0.1c0.1,0 0.2,0.033 0.3,0.1zm-3.25,-1.9c0.167,0.067 0.25,0.167 0.25,0.3c0,0.1 -0.083,0.2 -0.25,0.3c-0.2,0.1 -0.433,0.15 -0.7,0.15s-0.483,-0.05 -0.65,-0.15c-0.2,-0.1 -0.3,-0.2 -0.3,-0.3c0,-0.133 0.1,-0.233 0.3,-0.3c0.167,-0.1 0.383,-0.15 0.65,-0.15s0.5,0.05 0.7,0.15zm-5.95,3.45c-0.267,0.2 -0.567,0.3 -0.9,0.3c-0.367,0 -0.667,-0.1 -0.9,-0.3c-0.267,-0.2 -0.4,-0.45 -0.4,-0.75s0.133,-0.567 0.4,-0.8c0.233,-0.2 0.533,-0.3 0.9,-0.3c0.333,0 0.633,0.1 0.9,0.3c0.233,0.233 0.35,0.5 0.35,0.8s-0.117,0.55 -0.35,0.75z"/>
    <path stroke="null" id="svg_8" fill="#593D2E" d="m271.287686,201.008614c-0.467,-0.167 -0.867,-0.283 -1.2,-0.35c0.033,0.4 0.033,0.867 0,1.4l-0.15,0.25c0,-0.9 -0.184,-1.667 -0.55,-2.3c-0.2,-0.434 -0.35,-0.767 -0.45,-1c0.033,0.033 0.084,0.033 0.15,0l0.35,-0.25c0.167,-0.033 0.25,-0.35 0.25,-0.95c-0.033,-0.7 -0.05,-1.2 -0.05,-1.5c0,-0.233 0.2,-0.7 0.6,-1.4s0.75,-1.233 1.051,-1.6l0,7.7l-0.001,0zm-4.95,-10.5l-0.65,2.1l-0.55,0.75c0.1,0.267 0.45,0.7 1.05,1.3c0.467,0.467 0.65,0.967 0.55,1.5l-0.05,0.8c-0.267,-0.767 -0.767,-1.6 -1.5,-2.5c-0.666,-0.767 -1,-1.167 -1,-1.2c0,-0.367 0.233,-0.8 0.7,-1.3c0.467,-0.466 0.7,-1.267 0.7,-2.4c0,-0.467 -0.117,-1.05 -0.351,-1.75c-0.267,-0.9 -0.616,-1.6 -1.05,-2.1l0.15,-0.1l1.05,1.05c0.434,0.6 0.684,1.217 0.75,1.85l0.15,-3.75l0.199,-0.05l-0.048,0l0.4,-0.15l0.649,-0.3c0,0.033 -0.066,0.217 -0.199,0.55c-0.167,0.467 -0.25,0.883 -0.25,1.25c0,0.3 0.216,0.767 0.649,1.4c0.4,0.7 0.601,1.5 0.601,2.4l0,0.2c-0.067,-0.867 -0.216,-1.5 -0.45,-1.9c-0.2,-0.4 -0.434,-0.517 -0.7,-0.35c-0.3,0.133 -0.517,0.5 -0.65,1.1c-0.133,0.567 -0.183,1.1 -0.15,1.6zm-9.7,-0.4c0.4,0.533 0.866,0.933 1.4,1.2l-0.2,1.15c-0.167,-0.1 -0.566,-0.367 -1.2,-0.8c-0.733,-0.467 -1.2,-0.75 -1.4,-0.85l0.8,-0.4l0.6,-0.3zm1.85,-1c-0.066,0.233 -0.166,0.566 -0.3,1l-0.1,0.1l0,-0.9l0.175,-0.075l0.225,-0.125zm-5.2,5c0,0.433 -0.133,1.767 -0.4,4c0,0.6 0.083,1.25 0.25,1.95c-1.2,-1.733 -1.867,-3.017 -2,-3.85c-0.133,-0.867 -0.417,-1.617 -0.85,-2.25l1.1,-0.85c0.133,1 0.217,1.617 0.25,1.85c0.1,0.367 0.25,0.667 0.45,0.9l0.35,0.5c0.333,-2.9 0.55,-4.383 0.65,-4.45l0.85,-0.45c-0.433,0.867 -0.65,1.75 -0.65,2.65zm-7.1,27.55l-0.05,-0.85l-0.2,-1.9c1.733,-1.934 2.367,-4.6 1.9,-8c0.3,0.267 0.8,0.517 1.5,0.75c0.867,0.3 1.75,0.45 2.65,0.45c0.6,0 1.033,-0.133 1.3,-0.4c0.3,-0.333 0.567,-1 0.8,-2l0.4,0.05l0.1,1.3c0,0.967 -0.25,1.633 -0.75,2c-0.367,0.3 -0.95,0.467 -1.75,0.5l-0.05,0.85c0,0.267 0.15,0.483 0.45,0.65l-0.6,-0.2c0.2,0.267 0.7,0.717 1.5,1.35c0.7,0.634 1.083,1.2 1.15,1.7c-0.467,0.3 -1.167,0.483 -2.1,0.55c-0.9,0.033 -1.433,0.066 -1.6,0.101c0.233,0.166 0.65,0.433 1.25,0.8c0.5,0.333 0.816,0.633 0.95,0.899c-1.066,1.534 -1.683,2.334 -1.85,2.4c-0.6,0.3 -2.25,0.25 -4.95,-0.15l-0.05,-0.85zm13.1,-8.1c-0.367,0.8 -0.717,1.35 -1.051,1.65c-0.5,0.434 -1.183,0.65 -2.05,0.65c-0.833,0 -1.8,-0.167 -2.9,-0.5c0.4,0.066 0.917,0.116 1.55,0.149c0.1,0 0.75,-0.25 1.95,-0.75c1.301,-0.566 2.134,-0.966 2.501,-1.199zm2.75,-4.9c0.199,0.233 0.316,0.367 0.35,0.4c0.1,0.1 0.333,0.15 0.7,0.15c0.434,0 0.7,-0.133 0.8,-0.4c0.1,-0.167 0.2,-0.667 0.3,-1.5l0.05,-0.1l-0.8,-0.45c-0.233,0.467 -0.5,0.883 -0.8,1.25c0.033,-0.5 0.434,-1.067 1.2,-1.7c0.533,-0.4 0.483,-1.566 -0.15,-3.5l0.101,0.15c0.199,0.067 0.466,0.1 0.8,0.1c1,0 1.7,-0.25 2.1,-0.75c0.233,-0.3 0.384,-0.767 0.45,-1.4l0,-0.45c0.167,0.5 0.25,1.05 0.25,1.65l-0.7,1.6c-0.066,-0.133 -0.184,-0.233 -0.35,-0.3c-0.234,-0.167 -0.517,-0.25 -0.851,-0.25c-0.333,0 -0.616,0.083 -0.85,0.25c-0.267,0.133 -0.4,0.3 -0.4,0.5s0.134,0.383 0.4,0.55c0.233,0.1 0.517,0.15 0.85,0.15c0.334,0 0.617,-0.05 0.851,-0.15l0.05,-0.05l-0.951,2.15c0,0.6 0.467,1.333 1.4,2.2c0.934,-0.833 1.483,-1.367 1.649,-1.6c0.534,-0.633 0.934,-1.367 1.2,-2.2l0.4,0.35c0.033,0.367 0.149,0.9 0.35,1.6c0.167,0.633 0.25,1.1 0.25,1.4c0,1.067 -0.783,1.767 -2.35,2.1l-1.15,-0.35c-0.1,0.4 -0.149,0.3 -0.149,-0.3c0,-0.367 0.066,-0.567 0.199,-0.6c0.301,-0.067 0.5,-0.133 0.601,-0.2c-0.9,0 -1.767,-0.066 -2.601,-0.2c0,0.833 0.117,1.367 0.351,1.6c0.3,0.3 0.5,0.7 0.6,1.2c-1,1 -1.8,1.5 -2.399,1.5c-0.301,0 -0.534,-0.083 -0.7,-0.25c-0.367,-0.3 -0.867,-0.6 -1.5,-0.9l-0.5,-0.6c-0.033,0.367 0.2,0.867 0.7,1.5c0.666,0.767 1.05,1.45 1.149,2.05c-0.066,0.333 -0.717,1.033 -1.95,2.1c-1.399,1.167 -2.55,1.884 -3.449,2.15l-0.45,-0.101c-0.101,-1.199 0.184,-2.216 0.85,-3.05c0.934,-1.2 1.5,-2.066 1.7,-2.6c0.1,-0.133 0.267,-0.284 0.5,-0.45c0.1,-0.2 0.15,-0.5 0.15,-0.9c0,-0.267 -0.467,-0.934 -1.4,-2l0.749,0c0,-0.033 0.066,-0.133 0.2,-0.3c0.2,-0.233 0.3,-0.533 0.3,-0.9c0,-0.2 -0.167,-0.717 -0.5,-1.55c-0.366,-0.767 -0.55,-2.133 -0.55,-4.1c-0.834,-0.033 -1.417,-0.1 -1.75,-0.2c-0.5,-0.133 -0.883,-0.566 -1.15,-1.3l0.851,0.05c0.066,0.367 0.649,0.6 1.75,0.7c0.366,-0.1 0.583,-0.183 0.649,-0.25c0.167,-0.133 0.25,-0.4 0.25,-0.8c0,-0.367 -0.133,-0.667 -0.399,-0.9l-0.45,-0.25c-0.033,0.167 -0.134,0.284 -0.3,0.35c0.166,-0.667 0.25,-1.3 0.25,-1.9l-0.151,-1.599c0.333,1 0.816,1.983 1.45,2.95c0.3,0.5 0.566,0.917 0.8,1.25c0,0.3 -0.083,0.867 -0.25,1.7c-0.267,0.833 -0.4,1.4 -0.4,1.7c0,2.2 0.6,3.533 1.8,4zm2.2,1.65c-0.166,-0.233 -0.366,-0.35 -0.6,-0.35c-0.267,0 -0.483,0.117 -0.65,0.35c-0.133,0.167 -0.199,0.383 -0.199,0.65s0.066,0.517 0.199,0.75c0.167,0.167 0.384,0.25 0.65,0.25c0.233,0 0.434,-0.083 0.6,-0.25c0.167,-0.233 0.25,-0.483 0.25,-0.75s-0.083,-0.483 -0.25,-0.65z"/>
    <path stroke="null" id="svg_9" fill="#4D392A" d="m252.487686,215.058614l0.25,0.1c0.167,0.066 0.35,0.134 0.55,0.2c1.1,0.333 2.067,0.5 2.9,0.5c0.867,0 1.55,-0.217 2.05,-0.65c0.334,-0.3 0.684,-0.85 1.051,-1.65l0.349,-0.2c-0.2,0.533 -0.767,1.399 -1.7,2.6c-0.666,0.834 -0.95,1.851 -0.85,3.05l0.45,0.101c0.899,-0.267 2.05,-0.983 3.449,-2.15c1.233,-1.066 1.884,-1.767 1.95,-2.1c-0.1,-0.601 -0.483,-1.284 -1.149,-2.05c-0.5,-0.633 -0.733,-1.133 -0.7,-1.5l0.5,0.6c0.633,0.3 1.133,0.6 1.5,0.9c0.166,0.167 0.399,0.25 0.7,0.25c0.6,0 1.399,-0.5 2.399,-1.5c-0.1,-0.5 -0.3,-0.9 -0.6,-1.2c-0.233,-0.233 -0.351,-0.767 -0.351,-1.6c0.834,0.133 1.7,0.2 2.601,0.2c-0.099,0.066 -0.299,0.132 -0.599,0.199c-0.133,0.033 -0.199,0.233 -0.199,0.6c0,0.6 0.05,0.7 0.149,0.3l1.15,0.35c1.566,-0.333 2.35,-1.033 2.35,-2.1c0,-0.3 -0.083,-0.767 -0.25,-1.4c-0.2,-0.7 -0.316,-1.233 -0.35,-1.6c0,-0.133 0.366,-0.267 1.1,-0.4l0.25,4.1c0,0.533 -3.467,3.8 -10.399,9.8c-7.234,6.267 -11.717,9.399 -13.45,9.399c-0.5,0 -2.3,-0.166 -5.4,-0.5c-3.066,-0.333 -5.316,-0.583 -6.75,-0.75l-6.3,-0.649c-2.667,-0.134 -7.367,-0.5 -14.1,-1.101c-9.801,-0.899 -16.701,-1.516 -20.701,-1.849l-0.2,-1.25l0.05,0c0.534,0.2 1.383,0.366 2.55,0.5c1.1,0.166 1.883,0.25 2.35,0.25c0.867,0 1.483,-0.117 1.85,-0.351c-1.533,-0.399 -2.5,-0.699 -2.9,-0.899l0.5,0c0.133,-0.033 0.367,-0.066 0.7,-0.101l1.45,0c0.5,0 0.883,-0.133 1.15,-0.399c0.1,-0.066 0.2,-0.167 0.3,-0.3c0.233,-0.134 0.433,-0.284 0.6,-0.45l0.05,0.4c-0.133,0.601 -0.2,1.117 -0.2,1.551l2.6,0.05l2.8,-0.601c-0.333,-0.1 -0.633,-0.216 -0.9,-0.35c-0.4,-0.167 -0.7,-0.333 -0.9,-0.5c0.333,-0.134 0.75,-0.233 1.25,-0.3l0.25,0l3.05,0.1c-0.633,0.3 -1.017,0.5 -1.15,0.601c-0.067,0.066 -0.267,0.267 -0.6,0.6c0.533,0.967 1.267,1.45 2.2,1.45c0.5,0 1.15,-0.101 1.95,-0.3c0,-1.2 0.15,-2.084 0.45,-2.65l0.05,0.5c0.133,0.833 0.65,1.483 1.55,1.95c0.6,0.267 1.617,0.717 3.05,1.35l1.55,0.101l2.15,-0.152c0.833,-0.167 1.417,-0.233 1.75,-0.2l0.15,0c0.9,0.233 4.167,0.7 9.8,1.4c0.6,0 1.383,-0.167 2.35,-0.5c1.133,-0.367 1.867,-0.8 2.2,-1.3c-0.3,-0.101 -0.483,-0.317 -0.55,-0.65c0.5,-0.566 0.967,-1.45 1.4,-2.65c0.067,0.034 0.217,0.167 0.45,0.4c0.133,0.167 0.25,0.25 0.35,0.25c-0.534,1 -0.5,1.967 0.1,2.9s1.467,1.399 2.6,1.399c0.367,0 0.583,-0.033 0.65,-0.1c0.067,-0.066 0.133,-0.184 0.2,-0.351c-0.767,-0.3 -1.283,-0.566 -1.55,-0.8c0.8,-0.166 1.45,-0.6 1.95,-1.3c0.333,-0.4 0.55,-0.8 0.65,-1.2l0.1,0.7c-0.333,1.733 -0.3,2.75 0.1,3.05c0.867,0.733 1.4,1.367 1.6,1.9l0.05,0.2l-0.05,-0.7l0,-4.098c2.7,0.4 4.35,0.45 4.95,0.15c0.167,-0.066 0.784,-0.866 1.85,-2.4c-0.133,-0.267 -0.45,-0.566 -0.95,-0.899c-0.6,-0.367 -1.017,-0.634 -1.25,-0.8c0.167,-0.034 0.7,-0.067 1.6,-0.101c0.934,-0.066 1.633,-0.25 2.1,-0.55c-0.066,-0.5 -0.45,-1.066 -1.15,-1.7c-0.8,-0.633 -1.3,-1.083 -1.5,-1.35l0.6,0.2zm1.6,-5.35c-0.233,1 -0.5,1.667 -0.8,2c-0.267,0.267 -0.7,0.4 -1.3,0.4c-0.9,0 -1.783,-0.15 -2.65,-0.45c-0.7,-0.233 -1.2,-0.483 -1.5,-0.75l-0.2,-0.2c0.733,0.267 1.333,0.4 1.8,0.4c0.633,0 1.333,-0.167 2.1,-0.5c1,-0.434 1.783,-1.05 2.35,-1.85l0.2,0.95zm10.05,-24.75l0.85,0.35l-0.65,0.3l1.5,-0.65l0.45,-0.2l-0.15,3.75c-0.066,-0.633 -0.316,-1.25 -0.75,-1.85l-1.05,-1.05l-0.15,0.1c-0.066,-0.133 -0.149,-0.167 -0.25,-0.1c-0.066,0 -0.133,-0.067 -0.2,-0.2l0.2,-0.45l0.2,0zm-6.05,4.35l0,0.9l-0.05,1.1c-0.534,-0.267 -1,-0.667 -1.4,-1.2l0.15,-0.1c-0.067,-0.133 -0.101,-0.6 -0.101,-1.4l0.4,0c0.333,0.1 0.616,0.367 0.85,0.8l0.151,-0.1zm-5,2.6c-0.1,0.067 -0.317,1.55 -0.65,4.45l-0.35,-0.5c-0.2,-0.233 -0.35,-0.534 -0.45,-0.9c-0.033,-0.233 -0.117,-0.85 -0.25,-1.85l1.1,-0.75l-1,0.65c0.267,-0.567 0.25,-1.067 -0.05,-1.5l-0.3,-0.35c0.6,0.033 1.067,0.15 1.4,0.35c0.233,0.133 0.417,0.267 0.55,0.4zm5.45,8.65c0.166,-0.066 0.267,-0.183 0.3,-0.35l0.45,0.25c0.267,0.233 0.399,0.534 0.399,0.9c0,0.4 -0.083,0.667 -0.25,0.8c-0.066,0.067 -0.283,0.15 -0.649,0.25c-1.101,-0.1 -1.684,-0.333 -1.75,-0.7l1.5,-1.15zm4.1,7.45c0.3,-0.367 0.566,-0.783 0.8,-1.25l0.8,0.45l-0.05,0.1c-0.1,0.833 -0.2,1.333 -0.3,1.5c-0.1,0.267 -0.366,0.4 -0.8,0.4c-0.367,0 -0.601,-0.05 -0.7,-0.15c-0.033,-0.033 -0.15,-0.167 -0.35,-0.4l0.6,-0.65zm3.75,-3.6l-0.05,0.05c-0.233,0.1 -0.517,0.15 -0.851,0.15c-0.333,0 -0.616,-0.05 -0.85,-0.15c-0.267,-0.167 -0.4,-0.35 -0.4,-0.55s0.134,-0.367 0.4,-0.5c0.233,-0.167 0.517,-0.25 0.85,-0.25c0.334,0 0.617,0.083 0.851,0.25c0.166,0.067 0.283,0.167 0.35,0.3l0,0.2c0,0.2 -0.1,0.367 -0.3,0.5zm-24.2,9.85c-0.066,0.2 -0.133,0.384 -0.2,0.551l-0.35,0.049l-0.45,0.05c-0.833,-0.033 -1.35,-0.184 -1.55,-0.45l0.05,-0.25c0.434,-0.133 0.883,-0.617 1.35,-1.45l0,-0.05l1.4,0.2c-0.067,0.533 -0.15,0.983 -0.25,1.35zm-4.55,4.85l-1.1,0.05l-1.25,-0.15c0.934,-0.366 1.583,-0.683 1.95,-0.949l1.5,-0.45c0.2,-0.033 0.633,0.033 1.3,0.2c-0.1,0.1 -0.5,0.316 -1.2,0.649c-0.7,0.4 -1.1,0.617 -1.2,0.65zm-13.8,3.15c0.233,-0.399 0.6,-0.85 1.1,-1.35l0.25,-0.15c0.534,0.267 0.817,0.534 0.85,0.801c0.033,0.233 -0.066,0.449 -0.3,0.649s-0.55,0.3 -0.95,0.3c-0.367,0.034 -0.633,0.034 -0.8,0l-0.15,-0.25zm-24.4,-8.5l0,-0.2c0.267,0.067 0.717,0.2 1.35,0.4c0.4,0 0.917,-0.05 1.55,-0.15c0.4,-0.033 0.767,-0.117 1.1,-0.25c0.5,-0.1 1.1,-0.25 1.8,-0.45l-0.3,0.5c-0.367,0.466 -0.683,0.899 -0.95,1.3c-0.867,0.1 -1.817,0.15 -2.85,0.15c-0.4,0 -0.817,-0.051 -1.25,-0.15c-0.433,-0.066 -0.533,-0.3 -0.3,-0.7l0,-0.1l-0.15,-0.35zm17.9,1.55l1.45,0.199l-0.15,0.501c-1.467,1.267 -2.35,2.017 -2.65,2.25c-0.367,0.233 -1.067,0.351 -2.1,0.351s-1.85,-0.251 -2.45,-0.751c1.467,0.1 2.417,-0.033 2.85,-0.4c0.233,-0.267 0.383,-0.934 0.45,-2c0.033,-0.1 0.05,-0.166 0.05,-0.2c0.033,-0.066 0.083,-0.116 0.15,-0.149c0.167,-0.101 0.333,-0.15 0.5,-0.15l0.2,0l0.85,0.101l0.85,0.248zm15.95,-2.8c-0.233,0.1 -0.566,0.133 -1,0.1c-0.433,0 -0.783,-0.083 -1.05,-0.25c0,-0.167 0.433,-0.35 1.3,-0.55c0.434,-0.066 0.867,-0.117 1.3,-0.15l-0.55,0.85z"/>
    <path stroke="null" id="svg_10" fill="#6E4533" d="m194.037686,217.708614c0.033,-0.267 0.067,-0.533 0.1,-0.8l0,-0.25l0.05,-5.95l0.65,-0.1l0.5,0.2l0.5,-3.1l0.15,-0.4c0.133,0.567 0.2,1.733 0.2,3.5c0,0.6 0.034,1.267 0.1,2l-0.5,-0.85c0.133,1.034 0.7,1.95 1.7,2.75c0.9,0.733 1.783,1.134 2.65,1.2c0.133,0.566 0.217,1.4 0.25,2.5c-0.5,0.033 -1.133,0.267 -1.9,0.7c-0.767,0.399 -1.283,0.6 -1.55,0.6l-0.5,0c0.5,0.2 1.017,0.3 1.55,0.3c0.267,0 0.583,-0.1 0.95,-0.3c0.333,-0.233 0.633,-0.35 0.9,-0.35c0.4,0 1.1,0.133 2.1,0.399c0,0.034 0.1,0.301 0.3,0.801c-0.033,0.1 -0.067,0.183 -0.1,0.25c-0.1,0.133 -0.2,0.233 -0.3,0.3c-0.267,0.267 -0.65,0.399 -1.15,0.399l-1.45,0c-1.667,-0.1 -2.817,-0.3 -3.45,-0.6c-1.167,-0.565 -1.75,-1.633 -1.75,-3.199zm17.4,0.15c-0.8,-0.167 -1.4,-0.217 -1.8,-0.15c0.4,0.233 1.3,0.7 2.7,1.4l0.1,0.2c-0.5,0.033 -1.367,0.25 -2.6,0.649c-1.267,0.4 -1.983,0.617 -2.15,0.65l-0.25,0c-0.233,-0.101 -0.95,-0.767 -2.15,-2c-0.833,-0.8 -1.883,-0.917 -3.15,-0.351c-0.167,-1.1 -0.283,-2.116 -0.35,-3.05c1.733,0.233 3.05,-0.1 3.95,-1c0.867,-0.9 0.95,-1.983 0.25,-3.25c0.066,-0.3 0.066,-0.683 0,-1.15c-0.067,-0.533 -0.15,-0.883 -0.25,-1.05c0.833,0.467 1.267,1.25 1.3,2.35c0,0.566 -0.2,1.716 -0.6,3.45c0.133,0.066 0.467,0.199 1,0.399c0.567,0.233 1,0.351 1.3,0.351c0.367,0 1.283,-0.334 2.75,-1c1.533,-0.7 2.517,-1.083 2.95,-1.15l0.75,0c-0.033,0.3 -0.033,0.633 0,1c0.1,0.4 0.25,0.667 0.45,0.8l-0.2,0l-0.8,-0.948c0.033,0.333 0.083,0.567 0.15,0.7c0.067,0.101 0.067,0.283 0,0.55c0,0.034 -0.017,0.101 -0.05,0.2c-0.067,1.066 -0.217,1.733 -0.45,2c-0.433,0.367 -1.383,0.5 -2.85,0.4zm56.85,-27.8l0,-0.2c0.166,0.167 0.25,0.917 0.25,2.25c-0.067,0.167 -0.15,0.3 -0.25,0.4c-0.034,-0.2 -0.051,-0.6 -0.051,-1.2l0.051,-1.25zm-1.95,0.45l0.55,-1.3c-0.134,0.567 -0.333,1.317 -0.6,2.25c-0.167,0.7 -0.25,1.233 -0.25,1.6c0,0.333 0.133,0.7 0.399,1.1s0.417,0.7 0.45,0.9c-0.267,-0.167 -0.45,-0.383 -0.55,-0.65c-0.167,-0.633 -0.384,-1.233 -0.65,-1.8l0.651,-2.1zm-13.2,9.55c-0.167,-0.7 -0.25,-1.35 -0.25,-1.95c0.267,-2.233 0.4,-3.567 0.4,-4l1.95,-1.1c-0.1,0.133 -0.317,0.933 -0.65,2.4c-0.467,1.767 -0.7,3.283 -0.7,4.55c0,0.333 -0.017,0.633 -0.05,0.9c-0.233,-0.067 -0.467,-0.333 -0.7,-0.8zm-7.2,18.85l0.2,1.9c-0.167,-0.301 -0.367,-0.784 -0.6,-1.45c-0.233,-0.767 -0.383,-1.217 -0.45,-1.351l-0.3,-0.6c-0.033,0.233 -0.3,0.667 -0.8,1.3c-0.3,0.367 -0.167,0.816 0.4,1.351c-0.133,1.199 -0.333,2.033 -0.6,2.5c-0.367,0.533 -0.9,0.733 -1.6,0.6c-0.433,-0.566 -0.683,-0.983 -0.75,-1.25c-0.066,-0.3 0.017,-0.634 0.25,-1c-0.033,-0.2 -0.35,-0.3 -0.95,-0.3l-0.7,-0.101c0.233,-0.5 0.65,-1.033 1.25,-1.6c0.6,-0.6 0.967,-1.05 1.1,-1.35l-0.1,-0.351c-0.467,0.334 -0.983,0.55 -1.55,0.65l-0.45,-0.098c-0.033,-0.933 0.383,-1.866 1.25,-2.8c0.033,-0.033 0.067,-0.066 0.1,-0.1l0.35,-0.05c0.066,-0.167 0.133,-0.351 0.2,-0.551c0.6,-0.7 0.95,-1.149 1.05,-1.35c0.367,-0.5 0.383,-0.717 0.05,-0.65c-0.533,0.2 -0.917,0.283 -1.15,0.25c-0.233,0.167 -0.35,-0.05 -0.35,-0.65c0,-0.1 0.417,-0.667 1.25,-1.7c0.033,-0.067 0.233,-0.3 0.6,-0.7c0.267,-0.367 0.4,-0.75 0.4,-1.15c0.033,0.6 0.2,1.083 0.5,1.45l0.5,0.15c0.167,-0.4 0.267,-1.15 0.3,-2.25c0.033,-1 0.017,-1.917 -0.05,-2.75l0.25,0.05c0.133,3.301 0.267,7.951 0.4,13.951zm8.55,-9.15l-0.4,-0.05l-0.2,-0.95c0,-0.434 0.15,-1.1 0.45,-2c0.433,-1.1 0.883,-1.867 1.35,-2.3l0.95,-0.25c-0.333,0.333 -0.783,1.233 -1.35,2.7c-0.467,1.367 -0.733,2.317 -0.8,2.85zm5.2,-18.85c-0.1,2.567 0.033,4.417 0.4,5.55c0.5,1.6 0.783,2.667 0.85,3.2l-0.1,0.35c-0.601,-0.333 -1,-0.75 -1.2,-1.25c-0.233,-0.6 -0.684,-2.867 -1.35,-6.8l1.4,-1.05zm4.8,7.2c-0.566,0.267 -0.949,0.483 -1.149,0.65c-0.167,0.233 -0.267,0.933 -0.3,2.1c-0.2,-0.2 -0.317,-0.333 -0.351,-0.4c-0.1,-0.167 -0.149,-0.45 -0.149,-0.85l0.3,-0.6c0.233,-0.533 0.5,-0.967 0.8,-1.3l0.25,0.05c0.232,0.033 0.433,0.15 0.599,0.35zm-2.85,4c0.267,0.767 0.267,1.417 0,1.95c-0.366,0.667 -0.55,1.317 -0.55,1.95l0,0.25l-0.101,-2.2c0.001,-0.8 0.217,-1.45 0.651,-1.95zm7.05,-1.65c0.066,0.6 0.15,1.133 0.25,1.6c0.134,0.333 0.2,0.7 0.2,1.1c0,0.367 -0.483,1.017 -1.45,1.95l-0.2,-0.05c0.2,-0.2 0.434,-0.667 0.7,-1.4s0.45,-1.383 0.55,-1.95l-0.05,-1.25zm-24.25,-12.75c0.567,0 1.233,0.383 2,1.15l-0.1,0.3c-0.667,0.3 -1.684,0.467 -3.05,0.5c-1.567,0.067 -2.65,-0.083 -3.25,-0.45c0.267,-0.066 1.067,-0.367 2.4,-0.9c1.067,-0.4 1.733,-0.6 2,-0.6zm-3.6,8.25c-0.034,0.633 0.367,2.267 1.2,4.9c0,0.7 -0.167,1.3 -0.5,1.8c-0.333,0.467 -0.5,0.933 -0.5,1.4c0,0.367 0.05,0.633 0.15,0.8c0.067,0.1 0.25,0.283 0.55,0.55c-1.133,-0.433 -1.7,-0.8 -1.7,-1.1s0.117,-0.816 0.35,-1.55c0.267,-0.7 0.4,-1.2 0.4,-1.5c0,-0.333 -0.433,-1.167 -1.3,-2.5c-1,-1.633 -2.017,-2.567 -3.05,-2.8l1.9,0c0.733,-0.033 1.567,-0.033 2.5,0zm-17.7,5.4c0.667,-0.6 1.117,-1.467 1.35,-2.6c0.233,-1.267 0.65,-2.283 1.25,-3.05l2.4,0.05c-0.833,0.5 -1.567,1.35 -2.2,2.55c-0.6,1.1 -0.9,2 -0.9,2.7c-0.767,0.1 -1.4,0.217 -1.9,0.35zm-4.1,-5.9l3.35,0.1c0.333,0.4 0.65,0.85 0.95,1.35c0.267,0.467 0.4,0.733 0.4,0.8c0,0.9 -0.434,1.967 -1.3,3.2c-0.867,1.2 -1.3,2.183 -1.3,2.95c0,0.5 0.067,0.9 0.2,1.2l0.1,0.15c0,-0.833 0.184,-1.667 0.55,-2.5c0,0.6 0.033,1.2 0.1,1.8c0,0.333 -0.067,0.633 -0.2,0.9c-0.4,0.7 -0.6,1.067 -0.6,1.1l-0.05,1.05c-0.533,-0.5 -0.8,-1.05 -0.8,-1.65l0.1,-3.95c0.033,-1.2 0.417,-2 1.15,-2.4c0.333,-0.233 0.667,-0.433 1,-0.6c0,-1 -0.333,-1.75 -1,-2.25c-0.3,-0.2 -1.183,-0.617 -2.65,-1.25zm6.05,-10l-2.45,1.4l2.2,0.25c-0.133,0.033 -0.25,0.083 -0.35,0.15c-0.8,0.4 -1.583,0.6 -2.35,0.6c-0.333,0 -0.85,-0.117 -1.55,-0.35c-0.6,-0.167 -1.05,-0.333 -1.35,-0.5l0.25,-0.25c0.733,-0.333 1.25,-0.684 1.55,-1.05c0.333,-0.2 1.683,-0.283 4.05,-0.25zm1.25,1.1c-0.1,0 -0.2,0.017 -0.3,0.05c0.067,-0.067 0.133,-0.117 0.2,-0.15c-1.133,-0.6 -1.367,-0.917 -0.7,-0.95c2.233,0.033 2.684,0.233 1.35,0.6l-0.1,0.3l-0.05,0.1c-0.167,0 -0.3,0.017 -0.4,0.05zm-21.45,7.75l0.15,0c-0.066,0.333 0.1,0.35 0.5,0.05l0.65,0.05c0.067,0.5 0.35,1.467 0.85,2.9l0.1,0.3c0.199,-0.896 0.299,-1.871 0.3,-2.925l0,-0.025l0.05,0.025l0.05,0.025c-0.066,1.534 -0.1,3.15 -0.1,4.85c-0.167,-0.367 -0.55,-1.217 -1.15,-2.55c-0.667,-1.4 -1.133,-2.3 -1.4,-2.7zm-9.7,-0.05l0.75,-0.65l0.05,0l0,2.25c-0.233,-0.533 -0.5,-1.067 -0.8,-1.6zm36.65,8.95c-0.767,-0.033 -1.65,0 -2.65,0.1l-0.85,0.45l-0.1,0.1l-0.3,0.2c0.267,-1.1 1.267,-2.267 3,-3.5c1.767,-1.267 3.2,-1.783 4.3,-1.55c0.133,0.533 -0.017,1.1 -0.45,1.7c-0.433,0.567 -0.667,0.883 -0.7,0.95c0,0.067 0.35,0.45 1.05,1.15c0.667,1.067 1,2.383 1,3.95c0,0.6 -0.05,1.233 -0.15,1.9c0.033,-1.4 -0.184,-2.55 -0.65,-3.45c-0.633,-1.167 -1.8,-1.833 -3.5,-2zm18.6,1.25c-0.367,0.333 -0.716,0.767 -1.05,1.3c-0.7,1 -1.15,2.033 -1.35,3.1l-0.15,0.1c-0.3,-0.133 -0.45,-0.667 -0.45,-1.6c0,-2.3 0.733,-3.483 2.2,-3.55l0.8,0.65zm-30.3,9.7c0.233,-0.667 0.333,-1.767 0.3,-3.3l0.35,0.8c-0.167,1.133 -0.383,1.967 -0.65,2.5zm-1.9,10.05c-0.6,-0.333 -1.167,-0.7 -1.7,-1.1c-0.5,-0.4 -0.75,-0.717 -0.75,-0.95c0,-2.267 0.783,-3.967 2.35,-5.1c1.633,-1.2 2.533,-2.984 2.7,-5.351c0.033,0.167 0.2,0.567 0.5,1.2c0.233,0.7 0.183,1.384 -0.15,2.05c0.2,-0.1 0.75,-0.733 1.65,-1.9c0.867,-1.133 1.783,-1.95 2.75,-2.45c0,0.7 -0.15,1.65 -0.45,2.85c-0.267,0.267 -0.4,0.583 -0.4,0.95c0,0.066 0.017,0.15 0.05,0.25c-0.167,0.634 -0.383,1.4 -0.65,2.3l0,-0.05c-0.567,-0.3 -1.117,-0.45 -1.65,-0.45c-0.8,0 -1.667,0.517 -2.6,1.55c-0.133,0.9 -0.05,1.551 0.25,1.95l0,-0.1c0.033,0.133 0.083,0.267 0.15,0.399c0.267,0.601 0.6,0.9 1,0.9l2.55,1.1l0.15,0.25c-0.267,0 -0.517,0.051 -0.75,0.15c-0.267,0.134 -0.4,0.3 -0.4,0.5c-0.067,0.2 -0.017,0.384 0.15,0.55c0.2,0.101 0.433,0.184 0.7,0.25c-0.333,-0.033 -0.917,0.033 -1.75,0.2l-2.15,0.15l-1.55,-0.098zm20.8,-13.4l-0.45,0.15c0.333,0.167 0.733,0.267 1.2,0.3c0.4,0.066 0.833,0.367 1.3,0.9c-1.667,-0.467 -2.75,-0.917 -3.25,-1.35l1.2,0zm-12.95,8.2c-0.3,-0.666 -0.45,-1.267 -0.45,-1.8c0.3,0.267 1.1,0.4 2.4,0.4l0.1,0.2c0.067,0.133 0.233,0.199 0.5,0.199l0.9,-0.1c0.133,-0.533 0.233,-1.134 0.3,-1.8l-0.8,0.35c0.1,-0.3 0.15,-1.066 0.15,-2.3c0,-0.8 -0.117,-1.383 -0.35,-1.75c-0.4,-0.6 -0.717,-1.433 -0.95,-2.5c0.833,2.033 2.567,3.05 5.2,3.05c1.1,0 1.883,-0.6 2.35,-1.8c-0.133,0.533 -0.633,1.3 -1.5,2.3c-0.867,0.967 -1.333,1.634 -1.4,2l-0.05,0.8l2.1,0.15c0.933,0 1.617,0.017 2.05,0.05l1.75,-1.2l1.85,0.051l-1.5,2.3l-1.5,0.45c-0.533,0.133 -1.15,0.267 -1.85,0.399c-0.867,0.167 -1.45,0.283 -1.75,0.351c0.533,0.199 0.983,0.333 1.35,0.399c0.333,0.033 0.85,0.017 1.55,-0.05l1.1,-0.05c-0.133,0.8 -0.683,1.783 -1.65,2.95c-1.033,1.233 -2,1.85 -2.9,1.85c-2.367,0 -3.983,-0.1 -4.85,-0.3c-1.1,-0.233 -1.65,-0.75 -1.65,-1.55c0,-0.301 0.133,-0.617 0.4,-0.95c0.267,-0.334 0.4,-0.65 0.4,-0.95c0,-0.267 -0.133,-0.634 -0.4,-1.1c-0.333,-0.566 -0.633,-0.583 -0.9,-0.049zm40.4,-13.15c0.233,-0.233 0.434,-0.35 0.601,-0.35c-0.3,0.433 -0.601,0.667 -0.9,0.7l0.299,-0.35zm-2.25,4.45c0.167,0.167 0.25,0.383 0.25,0.65s-0.083,0.517 -0.25,0.75c-0.166,0.167 -0.366,0.25 -0.6,0.25c-0.267,0 -0.483,-0.083 -0.65,-0.25c-0.133,-0.233 -0.199,-0.483 -0.199,-0.75s0.066,-0.483 0.199,-0.65c0.167,-0.233 0.384,-0.35 0.65,-0.35c0.233,0 0.434,0.117 0.6,0.35zm-4.4,-1.2c-2,1.4 -3.75,2.933 -5.25,4.6c-0.167,0.167 -0.317,0.25 -0.45,0.25c0.3,-0.267 0.683,-0.883 1.15,-1.85c0.8,-1.1 2.317,-2.1 4.55,-3zm-42.15,-7.3c0,1.8 -0.433,3.233 -1.3,4.3c-0.933,1.133 -1.467,2.4 -1.6,3.8c-0.933,-1.067 -1.533,-1.667 -1.8,-1.8c-0.333,-0.233 -1.033,-0.45 -2.1,-0.65l-1.05,-0.05c0.566,-0.167 1.3,-0.133 2.2,0.1s1.533,0.3 1.9,0.2c1.4,-0.333 2.617,-3.05 3.65,-8.15l0.1,2.25zm12.65,-3l-0.05,-0.45l1.8,0.45l0.65,0.05c-0.667,0.433 -1.267,0.55 -1.8,0.35c-0.367,-0.267 -0.567,-0.4 -0.6,-0.4zm-17.15,16.25l0.65,-0.65c-1.3,0.6 -2.15,0.95 -2.55,1.05c-0.4,0.101 -1.4,0.167 -3,0.2c1.9,0.934 3.5,0.816 4.8,-0.35l0.1,-0.25zm-12.15,-11.5c-0.633,-0.467 -1.233,-0.783 -1.8,-0.95c-0.167,-0.1 -0.383,-0.25 -0.65,-0.45c2.367,-0.133 3.7,-0.167 4,-0.1c0.533,0.1 1.133,0.15 1.8,0.15c0.033,0 0.517,-0.267 1.45,-0.8c1,-0.533 1.633,-0.9 1.9,-1.1l0.25,-0.45c0.633,2.4 0.183,4.1 -1.35,5.1c-0.833,0.534 -1.283,0.883 -1.35,1.05c-0.333,0.5 -0.3,1.167 0.1,2c-0.267,-0.133 -1.033,-0.367 -2.3,-0.7c-1.233,-0.333 -2,-0.517 -2.3,-0.55c0.233,-0.934 0.517,-1.483 0.85,-1.65c0.367,-0.167 0.567,-0.267 0.6,-0.3c-0.067,-0.367 -0.467,-0.783 -1.2,-1.25zm12.15,-4.2l1.2,0.2c-0.6,0.333 -1.283,0.467 -2.05,0.4c0.066,-0.133 0.167,-0.267 0.3,-0.4c0.2,-0.1 0.383,-0.167 0.55,-0.2zm-7.1,17.55c-0.233,0.167 -0.35,0.384 -0.35,0.65c0,0.3 0.117,0.55 0.35,0.75c0.2,0.166 0.466,0.25 0.8,0.25s0.6,-0.084 0.8,-0.25c0.2,-0.2 0.3,-0.45 0.3,-0.75c0,-0.267 -0.1,-0.483 -0.3,-0.65c-0.2,-0.2 -0.466,-0.3 -0.8,-0.3s-0.6,0.1 -0.8,0.3zm23.95,2.85c-0.267,0.267 -0.4,0.584 -0.4,0.95c0,0.4 0.133,0.733 0.4,1s0.567,0.4 0.9,0.4c0.367,0 0.684,-0.134 0.95,-0.4s0.4,-0.6 0.4,-1c0,-0.366 -0.133,-0.684 -0.4,-0.95s-0.583,-0.4 -0.95,-0.4c-0.333,0 -0.633,0.133 -0.9,0.4z"/>
    <path stroke="null" id="svg_11" fill="#5E3F2E" d="m218.237686,224.208614c-1.434,-0.633 -2.45,-1.083 -3.05,-1.35c-0.9,-0.467 -1.417,-1.117 -1.55,-1.95l-0.05,-0.5c-0.3,0.566 -0.45,1.45 -0.45,2.65c-0.8,0.199 -1.45,0.3 -1.95,0.3c-0.933,0 -1.667,-0.483 -2.2,-1.45l0.6,-0.6c0.133,-0.101 0.517,-0.301 1.15,-0.601l-3.05,-0.1c0.167,-0.033 0.883,-0.25 2.15,-0.65c1.233,-0.399 2.1,-0.616 2.6,-0.649l-0.1,-0.2c-1.4,-0.7 -2.3,-1.167 -2.7,-1.4c0.4,-0.066 1,-0.017 1.8,0.15c0.6,0.5 1.417,0.75 2.45,0.75s1.733,-0.117 2.1,-0.351c0.3,-0.233 1.183,-0.983 2.65,-2.25l0.15,-0.5l-1.45,-0.199c0.767,-0.034 1.25,-0.084 1.45,-0.15c0.4,-0.134 0.85,-0.467 1.35,-1c0.267,-0.533 0.483,-1.367 0.65,-2.5l0.05,0.05c-0.167,2.367 -1.067,4.15 -2.7,5.351c-1.567,1.133 -2.35,2.833 -2.35,5.1c0,0.233 0.25,0.55 0.75,0.95c0.533,0.399 1.1,0.766 1.7,1.099zm-24.2,-6.5c0,1.566 0.583,2.634 1.75,3.2c0.633,0.3 1.783,0.5 3.45,0.6c-0.333,0.034 -0.567,0.067 -0.7,0.101l-0.5,0c0.4,0.2 1.367,0.5 2.9,0.899c-0.367,0.233 -0.983,0.35 -1.85,0.35c-0.467,0 -1.25,-0.084 -2.35,-0.25c-1.167,-0.134 -2.017,-0.3 -2.55,-0.5l-0.05,0l-0.15,-2.45c0,-0.333 0.017,-0.983 0.05,-1.95zm59.85,-36.25l0.15,0.05c-0.5,0.467 -1.066,0.8 -1.7,1c-0.333,0.1 -0.633,0.15 -0.9,0.15c-0.367,0 -0.6,-0.083 -0.7,-0.25c-0.033,-0.067 -0.1,-0.233 -0.2,-0.5c0.033,-0.2 0.117,-0.417 0.25,-0.65c0.1,-0.133 0.2,-0.25 0.3,-0.35l2.8,0.55zm6.3,1.3c-0.233,-0.1 -0.35,-0.2 -0.35,-0.3c0,-0.133 0.116,-0.25 0.35,-0.35c0.2,-0.067 0.434,-0.1 0.7,-0.1s0.5,0.033 0.7,0.1c0.233,0.1 0.35,0.216 0.35,0.35c0,0.1 -0.116,0.2 -0.35,0.3c-0.2,0.1 -0.434,0.15 -0.7,0.15s-0.5,-0.05 -0.7,-0.15zm-13.75,9.3c-0.133,0.3 -0.216,0.5 -0.25,0.6c-0.033,0.1 -0.15,0.267 -0.35,0.5l-0.025,0l-1.575,-0.2c0,-0.2 0.217,-0.383 0.65,-0.55c0.733,-0.3 1.15,-0.467 1.25,-0.5l0.3,0.15zm-4.7,13.35c-0.3,-0.267 -0.483,-0.45 -0.55,-0.55c-0.1,-0.167 -0.15,-0.434 -0.15,-0.8c0,-0.467 0.167,-0.933 0.5,-1.4c0.333,-0.5 0.5,-1.1 0.5,-1.8c-0.833,-2.633 -1.233,-4.267 -1.2,-4.9l0.15,0l1.95,0.25l0.05,0.05c-0.033,0.433 -0.15,0.833 -0.35,1.2c0.167,-0.433 0.15,-0.466 -0.05,-0.1c-0.333,0.633 -0.517,0.966 -0.55,1l0.45,-0.55c-0.033,0.4 0.083,0.967 0.35,1.7s0.4,1.233 0.4,1.5c0,0.433 -0.2,0.95 -0.6,1.55c-0.4,0.633 -0.617,1.267 -0.65,1.9l1.35,2.45l0.05,0.3c-0.633,-0.633 -1.183,-1.233 -1.65,-1.8zm-16,-9.7c-0.6,0.767 -1.017,1.784 -1.25,3.05c-0.233,1.133 -0.684,2 -1.35,2.6c-0.433,0.4 -0.817,0.85 -1.15,1.35c-0.367,0.833 -0.55,1.667 -0.55,2.5l-0.1,-0.15c-0.133,-0.3 -0.2,-0.7 -0.2,-1.2c0,-0.767 0.433,-1.75 1.3,-2.95c0.867,-1.233 1.3,-2.3 1.3,-3.2c0,-0.066 -0.133,-0.333 -0.4,-0.8c-0.3,-0.5 -0.617,-0.95 -0.95,-1.35l2.55,0.1l0.8,0.05zm-0.9,-8.6l-2.2,-0.25l2.45,-1.4l0.45,0.05c-0.667,0.033 -0.433,0.35 0.7,0.95c-0.067,0.034 -0.133,0.083 -0.2,0.15c0,0.033 -0.017,0.066 -0.05,0.1c0,0.034 -0.017,0.05 -0.05,0.05c-0.2,0.1 -0.4,0.183 -0.6,0.25c-0.1,0.033 -0.184,0.066 -0.25,0.1l-0.25,0zm-28.85,6.5l1.5,0.1c-1.033,1.7 -1.317,3.783 -0.85,6.25l-0.1,0.25c-0.467,-0.2 -0.7,-0.6 -0.7,-1.2l0.15,-3.15l0,-2.25zm50.25,33l0,0.5c-0.2,-0.533 -0.733,-1.167 -1.6,-1.9c-0.4,-0.3 -0.433,-1.316 -0.1,-3.05l-0.1,-0.7c-0.1,0.4 -0.316,0.8 -0.65,1.2c-0.5,0.7 -1.15,1.134 -1.95,1.3c0.267,0.233 0.783,0.5 1.55,0.8c-0.067,0.167 -0.133,0.284 -0.2,0.351c-0.066,0.066 -0.283,0.1 -0.65,0.1c-1.133,0 -2,-0.467 -2.6,-1.399c-0.6,-0.934 -0.633,-1.9 -0.1,-2.9c-0.1,0 -0.217,-0.083 -0.35,-0.25c-0.233,-0.233 -0.383,-0.366 -0.45,-0.4c-0.433,1.2 -0.9,2.084 -1.4,2.65c0.067,0.333 0.25,0.55 0.55,0.65c-0.333,0.5 -1.066,0.933 -2.2,1.3c-0.967,0.333 -1.75,0.5 -2.35,0.5c-5.633,-0.7 -8.9,-1.167 -9.8,-1.4l-0.15,0c-0.267,-0.066 -0.5,-0.149 -0.7,-0.25c-0.167,-0.166 -0.217,-0.35 -0.15,-0.55c0,-0.2 0.133,-0.366 0.4,-0.5c0.233,-0.1 0.483,-0.15 0.75,-0.15c0.167,0.034 0.433,0.034 0.8,0c0.4,0 0.717,-0.1 0.95,-0.3s0.333,-0.416 0.3,-0.649c-0.033,-0.267 -0.316,-0.534 -0.85,-0.801l0.9,-1.75c0.267,-0.533 0.566,-0.517 0.9,0.051c0.267,0.466 0.4,0.833 0.4,1.1c0,0.3 -0.133,0.616 -0.4,0.95c-0.267,0.333 -0.4,0.649 -0.4,0.95c0,0.8 0.55,1.316 1.65,1.55c0.867,0.2 2.483,0.3 4.85,0.3c0.9,0 1.867,-0.616 2.9,-1.85c0.967,-1.167 1.517,-2.15 1.65,-2.95c0.1,-0.033 0.5,-0.25 1.2,-0.65c0.7,-0.333 1.1,-0.55 1.2,-0.649c-0.667,-0.167 -1.1,-0.233 -1.3,-0.2l1.5,-2.3l-1.85,-0.054c-0.267,-0.233 -0.717,-0.517 -1.35,-0.85c-0.5,-0.3 -0.867,-0.583 -1.1,-0.85c-0.1,-0.2 -0.2,-0.467 -0.3,-0.8c1.133,0.9 2.167,1.35 3.1,1.35c0.5,0 0.967,-0.15 1.4,-0.45l0.9,-0.9c-0.467,0.833 -0.917,1.316 -1.35,1.45l-0.05,0.25c0.2,0.267 0.717,0.417 1.55,0.45l0.45,-0.05c-0.033,0.033 -0.067,0.066 -0.1,0.1c-0.867,0.934 -1.283,1.867 -1.25,2.8l0.45,0.1c0.566,-0.101 1.083,-0.316 1.55,-0.65l0.1,0.351c-0.133,0.3 -0.5,0.75 -1.1,1.35c-0.6,0.566 -1.017,1.1 -1.25,1.6l0.7,0.101c0.6,0 0.917,0.1 0.95,0.3c-0.233,0.366 -0.316,0.7 -0.25,1c0.067,0.267 0.317,0.684 0.75,1.25c0.7,0.134 1.233,-0.066 1.6,-0.6c0.267,-0.467 0.467,-1.301 0.6,-2.5c-0.567,-0.534 -0.7,-0.983 -0.4,-1.351c0.5,-0.633 0.767,-1.066 0.8,-1.3l0.3,0.6c0.066,0.134 0.216,0.584 0.45,1.351c0.233,0.666 0.434,1.149 0.6,1.45l0.05,0.85l0.05,2.6l0,2.348zm-38.8,-6c-0.5,0.066 -0.917,0.166 -1.25,0.3c0.2,0.167 0.5,0.333 0.9,0.5c0.267,0.134 0.566,0.25 0.9,0.35l-2.8,0.601l-2.6,-0.05c0,-0.434 0.066,-0.95 0.2,-1.551l-0.05,-0.4c-0.167,0.166 -0.367,0.316 -0.6,0.45c0.033,-0.067 0.067,-0.15 0.1,-0.25c-0.2,-0.5 -0.3,-0.767 -0.3,-0.801c-1,-0.267 -1.7,-0.399 -2.1,-0.399c-0.267,0 -0.567,0.116 -0.9,0.35c-0.367,0.2 -0.683,0.3 -0.95,0.3c-0.533,0 -1.05,-0.1 -1.55,-0.3l0.5,0c0.267,0 0.784,-0.2 1.55,-0.6c0.767,-0.434 1.4,-0.667 1.9,-0.7c-0.033,-1.1 -0.117,-1.934 -0.25,-2.5c-0.867,-0.066 -1.75,-0.467 -2.65,-1.2c-1,-0.8 -1.567,-1.716 -1.7,-2.75l0.5,0.85c0,0.4 0.333,0.733 1,1c0.633,0.267 1.4,0.4 2.3,0.4c-0.233,0.4 -0.133,0.634 0.3,0.7c0.433,0.1 0.85,0.15 1.25,0.15c1.033,0 1.983,-0.051 2.85,-0.15c0.267,-0.4 0.583,-0.833 0.95,-1.3l0.3,-0.5c-0.7,0.2 -1.3,0.35 -1.8,0.45c0.633,-0.233 1.1,-0.683 1.4,-1.35c0.167,-0.267 0.4,-1.233 0.7,-2.9l0.45,1.65c0.7,1.267 0.617,2.35 -0.25,3.25c-0.9,0.9 -2.217,1.233 -3.95,1c0.067,0.933 0.183,1.95 0.35,3.05c1.267,-0.566 2.317,-0.449 3.15,0.351c1.2,1.233 1.917,1.899 2.15,1.999zm5.75,-5.55l-0.1,0.25c-1.3,1.166 -2.9,1.283 -4.8,0.35c1.6,-0.033 2.6,-0.1 3,-0.2s1.25,-0.45 2.55,-1.05l-0.65,0.65zm29.85,-4.9c-0.833,1.033 -1.25,1.6 -1.25,1.7c0,0.6 0.117,0.816 0.35,0.65c0.233,0.033 0.617,-0.05 1.15,-0.25c0.333,-0.067 0.317,0.15 -0.05,0.65c-0.1,0.2 -0.45,0.65 -1.05,1.35c0.1,-0.366 0.184,-0.816 0.25,-1.35l-1.4,-0.2l0.05,-0.55c-0.467,-0.533 -0.9,-0.833 -1.3,-0.9c-0.467,-0.033 -0.867,-0.133 -1.2,-0.3l0.45,-0.15c1.7,-0.2 3.033,-0.417 4,-0.65zm-7.6,1c-0.466,1.2 -1.25,1.8 -2.35,1.8c-2.633,0 -4.367,-1.017 -5.2,-3.05l-0.05,-0.3l0.3,0.05c0.5,0.233 1.133,0.717 1.9,1.45c0.5,0.433 1.1,0.65 1.8,0.65c0.733,0 1.25,-0.083 1.55,-0.25s1.25,-0.75 2.85,-1.75l-0.8,1.4zm1.1,8c-0.7,0.066 -1.217,0.083 -1.55,0.05c-0.367,-0.066 -0.817,-0.2 -1.35,-0.399c0.3,-0.067 0.883,-0.184 1.75,-0.351c0.7,-0.133 1.317,-0.267 1.85,-0.399c-0.367,0.267 -1.017,0.583 -1.95,0.949l1.25,0.15zm-13.1,-27.85l-0.25,0.25c-0.267,0.733 -0.466,1.15 -0.6,1.25c-0.267,0.3 -0.75,0.45 -1.45,0.45c-0.333,0 -0.55,-0.05 -0.65,-0.15l-0.05,-0.2c0.133,-0.1 0.417,-0.383 0.85,-0.85c0.5,-0.4 1.217,-0.65 2.15,-0.75zm-7.9,3.85c-0.3,-0.033 -0.517,-0.1 -0.65,-0.2l-0.1,-0.15c0,-0.2 0.55,-0.3 1.65,-0.3c-0.133,0.2 -0.233,0.35 -0.3,0.45c-0.1,0.1 -0.3,0.167 -0.6,0.2zm-9.55,-3.4l-1.2,0.75c-0.5,0.167 -1.066,0.267 -1.7,0.3c-0.633,0 -1.067,-0.033 -1.3,-0.1l0.15,-0.5c0.434,-0.5 0.967,-0.75 1.6,-0.75c0.567,0 1.383,0.1 2.45,0.3zm1.45,2.9l0,0.025c-0.001,1.055 -0.101,2.029 -0.3,2.925l-0.1,-0.3c-0.5,-1.433 -0.783,-2.4 -0.85,-2.9l1.25,0.25zm-5.1,19.15c-0.633,0.1 -1.15,0.15 -1.55,0.15c-0.633,-0.2 -1.083,-0.333 -1.35,-0.4l0,0.2c-0.3,-0.367 -0.517,-0.75 -0.65,-1.15l0,-0.45c0.567,0.433 1.1,0.883 1.6,1.35c0.367,0.2 0.883,0.3 1.55,0.3l0.4,0zm22.6,7.1c-0.5,0.5 -0.867,0.95 -1.1,1.35l-2.55,-1.1l-0.45,-0.25c0.433,-0.066 1.15,-0.066 2.15,0c1.067,0.033 1.717,0.033 1.95,0zm8.35,-8.4l0.55,-0.85c-0.434,0.033 -0.867,0.083 -1.3,0.15c-0.867,0.2 -1.3,0.383 -1.3,0.55c0.267,0.167 0.617,0.25 1.05,0.25c0.433,0.033 0.767,0 1,-0.1zm-5.25,5.1l1,-1.15l0.8,-0.35c-0.067,0.666 -0.167,1.267 -0.3,1.8l-0.9,0.1c-0.267,0 -0.433,-0.066 -0.5,-0.199l-0.1,-0.201zm-12.6,-2.65c-0.167,0 -0.333,0.05 -0.5,0.15c-0.066,0.033 -0.117,0.083 -0.15,0.149c0.067,-0.267 0.067,-0.449 0,-0.55c-0.066,-0.133 -0.117,-0.366 -0.15,-0.7l0.8,0.951zm14.6,4.8c0.267,-0.267 0.567,-0.399 0.9,-0.399c0.367,0 0.684,0.133 0.95,0.399s0.4,0.584 0.4,0.95c0,0.4 -0.133,0.733 -0.4,1s-0.583,0.4 -0.95,0.4c-0.333,0 -0.633,-0.134 -0.9,-0.4s-0.4,-0.6 -0.4,-1c0,-0.366 0.133,-0.684 0.4,-0.95z"/>
    <path stroke="null" id="svg_12" fill="#A16350" d="m196.837686,191.058614c1.733,-1.066 7.466,-3.8 17.2,-8.2l1.35,-0.75l0.4,-0.25l-0.2,0.55l0,0.05c-0.034,0.434 -0.233,0.717 -0.6,0.85c1.267,-0.267 3.5,-0.467 6.7,-0.6l1.55,1.4c-3.567,0.233 -7.033,0.35 -10.4,0.35c-1.133,0 -3.05,0.55 -5.75,1.65c-3.6,1.466 -6.883,3.4 -9.85,5.8c-0.133,-0.233 -0.267,-0.517 -0.4,-0.85zm19.8,-9.95l0.7,-0.45l0.05,-0.1c0.067,0 0.2,0.033 0.4,0.1c0.066,0 0.1,-0.167 0.1,-0.5c0.006,0.333 0.756,0.483 2.25,0.45c1.067,-0.034 3.617,-0.15 7.65,-0.35l6.25,0.05c-1.7,0.567 -4.7,0.867 -9,0.9c-4.5,-0.067 -7.3,-0.1 -8.4,-0.1zm30.7,-0.5c-1.333,0.767 -2.15,1.216 -2.45,1.35c-0.4,0.133 -2.067,0.667 -5,1.6c0.8,0.4 1.367,0.717 1.7,0.95c0.4,0.3 0.867,0.816 1.4,1.55c-0.967,0.667 -2.583,1.067 -4.85,1.2l-3.95,0c-1,0 -2.2,-0.133 -3.6,-0.4c0.533,-0.434 0.966,-0.717 1.3,-0.85c0.9,-0.367 2.133,-0.567 3.7,-0.6c-0.034,-0.533 -0.317,-0.8 -0.85,-0.8c-0.333,0 -0.483,-0.034 -0.45,-0.1c0.067,-0.167 0.083,-0.25 0.05,-0.25l-0.1,-0.35c1.1,0 2.483,-0.267 4.15,-0.8c1.633,-0.533 2.717,-1.05 3.25,-1.55c0,-0.1 -0.3,-0.15 -0.9,-0.15l-0.1,-0.3c0.1,-0.267 0.2,-0.434 0.3,-0.5l6.4,-0.05l0,0.05zm4.55,6.3c0.2,-0.3 0.95,-0.567 2.25,-0.8l0.9,-0.05c-0.6,0.767 -0.917,1.184 -0.95,1.25c-0.233,0.2 -0.534,0.3 -0.9,0.3c-0.633,0 -1.033,-0.133 -1.2,-0.4l-0.1,-0.3zm-15.65,5.05l1.6,0.2c-0.034,0.167 -0.2,0.233 -0.5,0.2c-0.233,0 -0.483,-0.067 -0.75,-0.2l-0.35,-0.2zm-24.05,-4.5l0.35,0.25c-0.833,0.6 -1.633,0.9 -2.4,0.9c-0.367,0 -0.6,-0.067 -0.7,-0.2c-0.033,0 -0.1,-0.1 -0.2,-0.3c0.566,-0.333 0.95,-0.517 1.15,-0.55c0.633,-0.167 1.233,-0.2 1.8,-0.1zm0.35,4.9l0,1.4l-3.7,0l0,-1.4l3.7,0zm7.05,-3.6l2.65,0.8c-0.667,1.267 -1.783,2.05 -3.35,2.35c-0.533,0.133 -1.883,0.2 -4.05,0.2c-0.233,0 -1.9,-0.267 -5,-0.8c1,-0.5 2.283,-1.15 3.85,-1.95c1.733,-0.534 3.5,-0.733 5.3,-0.6l0.6,0zm8.2,-6.55c0,0.167 -0.15,0.317 -0.45,0.45c-0.233,0.133 -0.534,0.2 -0.9,0.2c-0.3,0 -0.583,-0.067 -0.85,-0.2s-0.4,-0.283 -0.4,-0.45s0.133,-0.316 0.4,-0.45c0.267,-0.133 0.55,-0.2 0.85,-0.2c0.367,0 0.667,0.067 0.9,0.2c0.3,0.133 0.45,0.283 0.45,0.45zm3.7,10.2c-0.934,0 -1.717,-0.133 -2.35,-0.4c-0.667,-0.267 -1,-0.583 -1,-0.95c0,-0.333 0.333,-0.65 1,-0.95c0.633,-0.267 1.417,-0.4 2.35,-0.4s1.733,0.133 2.4,0.4c0.667,0.3 1,0.617 1,0.95c0,0.367 -0.333,0.684 -1,0.95s-1.467,0.4 -2.4,0.4zm-24.85,-2.55l-0.05,-0.35l0,-0.3l0.85,0.6l-0.8,0.05z"/>
   </g>
  </g>
 </g>
</svg>